<?xml version="1.0" encoding="UTF-8" standalone="no"?>
<!DOCTYPE svg PUBLIC "-//W3C//DTD SVG 1.1//EN" "http://www.w3.org/Graphics/SVG/1.1/DTD/svg11.dtd">
<svg width="100%" height="100%" viewBox="0 0 250 106" version="1.1" xmlns="http://www.w3.org/2000/svg" xmlns:xlink="http://www.w3.org/1999/xlink" xml:space="preserve" xmlns:serif="http://www.serif.com/" style="fill-rule:evenodd;clip-rule:evenodd;stroke-linejoin:round;stroke-miterlimit:2;">
    <g transform="matrix(2.15874,0,-0.644691,2.15874,3.38496,-33.3832)">
        <g>
            <g transform="matrix(13.7264,0,0,13.7264,20.8628,36.098)">
                <path d="M0.027,-0.828L0.271,-0.828C0.335,-0.828 0.39,-0.816 0.436,-0.791L0.436,-0.789L0.431,-0.789L0.431,-0.786L0.434,-0.786L0.436,-0.789L0.438,-0.789C0.494,-0.758 0.522,-0.708 0.522,-0.64L0.522,-0.5C0.522,-0.471 0.517,-0.448 0.506,-0.433L0.503,-0.424C0.5,-0.416 0.494,-0.412 0.485,-0.412L0.489,-0.407L0.492,-0.41L0.492,-0.407L0.485,-0.4L0.482,-0.403L0.48,-0.403L0.48,-0.4L0.482,-0.398L0.482,-0.396L0.48,-0.394L0.478,-0.394C0.478,-0.398 0.476,-0.4 0.473,-0.4L0.473,-0.398L0.478,-0.391L0.473,-0.391C0.472,-0.384 0.461,-0.375 0.441,-0.363L0.438,-0.363L0.434,-0.368L0.436,-0.37L0.436,-0.373L0.429,-0.373L0.429,-0.375C0.429,-0.378 0.432,-0.379 0.438,-0.379L0.438,-0.382L0.436,-0.384L0.436,-0.386L0.434,-0.384L0.429,-0.384L0.427,-0.386L0.424,-0.386L0.422,-0.384L0.422,-0.382L0.427,-0.377L0.422,-0.373L0.429,-0.373L0.429,-0.368L0.417,-0.366L0.42,-0.368L0.42,-0.37L0.415,-0.37L0.408,-0.366L0.406,-0.368L0.399,-0.368L0.399,-0.366L0.406,-0.366L0.406,-0.363L0.394,-0.361L0.39,-0.361L0.39,-0.366L0.387,-0.366L0.387,-0.361L0.39,-0.358L0.385,-0.358L0.38,-0.354L0.38,-0.352L0.382,-0.349L0.382,-0.347L0.38,-0.345L0.382,-0.345L0.385,-0.347L0.387,-0.347L0.39,-0.345L0.39,-0.349L0.392,-0.349L0.399,-0.342L0.401,-0.342L0.401,-0.337L0.399,-0.337L0.396,-0.34L0.394,-0.34L0.399,-0.321L0.403,-0.321L0.403,-0.331L0.406,-0.342C0.4,-0.342 0.396,-0.346 0.396,-0.354L0.399,-0.356L0.401,-0.354L0.408,-0.354L0.408,-0.358L0.403,-0.358L0.403,-0.361L0.408,-0.361L0.415,-0.358L0.415,-0.361L0.413,-0.363L0.413,-0.366L0.417,-0.366L0.417,-0.361L0.42,-0.361L0.422,-0.363L0.424,-0.363L0.424,-0.358L0.429,-0.358L0.429,-0.363L0.434,-0.358L0.427,-0.356C0.427,-0.353 0.429,-0.352 0.434,-0.352L0.431,-0.349L0.431,-0.347L0.434,-0.349L0.436,-0.349L0.441,-0.345C0.436,-0.345 0.434,-0.343 0.434,-0.34L0.434,-0.337L0.438,-0.337L0.438,-0.342L0.441,-0.342L0.441,-0.337L0.443,-0.337L0.443,-0.342L0.445,-0.342L0.448,-0.34L0.45,-0.342L0.452,-0.342C0.503,-0.311 0.529,-0.269 0.529,-0.217L0.529,-0.119L0.527,-0.105L0.529,-0.098L0.527,-0.101L0.52,-0.101L0.52,-0.098L0.522,-0.096L0.52,-0.094L0.52,-0.089L0.522,-0.091L0.527,-0.091L0.524,-0.089L0.524,-0.082L0.529,-0.082L0.529,-0.024C0.529,0.023 0.525,0.046 0.518,0.046L0.518,0.053C0.518,0.08 0.493,0.113 0.443,0.153C0.398,0.179 0.347,0.192 0.292,0.192L0.032,0.192C0.016,0.192 0.008,0.185 0.008,0.171L0.008,-0.444L0.011,-0.442L0.015,-0.442C0.015,-0.445 0.013,-0.447 0.008,-0.447L0.008,-0.81C0.008,-0.822 0.014,-0.828 0.027,-0.828ZM0.257,-0.668L0.257,-0.428L0.259,-0.428C0.277,-0.434 0.285,-0.444 0.285,-0.456L0.285,-0.64C0.285,-0.653 0.276,-0.662 0.257,-0.668ZM0.413,-0.496L0.413,-0.493L0.42,-0.486L0.422,-0.486L0.422,-0.489L0.417,-0.489C0.417,-0.493 0.416,-0.496 0.413,-0.496ZM0.413,-0.473L0.42,-0.473L0.42,-0.477L0.415,-0.482L0.413,-0.473ZM0.162,-0.473L0.162,-0.47L0.171,-0.468L0.171,-0.473L0.162,-0.473ZM0.464,-0.447C0.464,-0.442 0.462,-0.44 0.457,-0.44L0.461,-0.435L0.466,-0.44L0.466,-0.447L0.464,-0.447ZM0.413,-0.428L0.413,-0.431L0.415,-0.428L0.417,-0.428L0.42,-0.431L0.415,-0.431L0.417,-0.433L0.417,-0.438L0.413,-0.428ZM0.492,-0.428L0.494,-0.428L0.499,-0.433L0.499,-0.435L0.492,-0.428ZM0.085,-0.417L0.085,-0.415L0.092,-0.415L0.092,-0.419L0.085,-0.417ZM0.457,-0.415L0.461,-0.415L0.469,-0.417L0.469,-0.419L0.461,-0.419L0.457,-0.415ZM0.296,-0.417L0.296,-0.415C0.3,-0.415 0.301,-0.412 0.301,-0.407L0.296,-0.417ZM0.464,-0.4L0.461,-0.394L0.469,-0.391L0.471,-0.394L0.471,-0.396L0.464,-0.4ZM0.078,-0.398L0.078,-0.394L0.087,-0.391L0.081,-0.398L0.078,-0.398ZM0.441,-0.386L0.445,-0.382L0.448,-0.384L0.45,-0.382L0.452,-0.384L0.452,-0.386L0.45,-0.389L0.448,-0.389L0.441,-0.386ZM0.09,-0.386L0.09,-0.384L0.097,-0.379L0.097,-0.384L0.09,-0.386ZM0.099,-0.384L0.099,-0.382L0.104,-0.377L0.104,-0.379L0.099,-0.384ZM0.259,-0.379L0.259,-0.377C0.262,-0.371 0.264,-0.368 0.266,-0.368L0.262,-0.379L0.259,-0.379ZM0.018,-0.368L0.018,-0.366L0.02,-0.366L0.02,-0.37C0.025,-0.37 0.027,-0.372 0.027,-0.375L0.024,-0.375L0.018,-0.368ZM0.382,-0.34L0.382,-0.337L0.387,-0.333L0.392,-0.337L0.385,-0.34L0.382,-0.34ZM0.417,-0.34L0.417,-0.337L0.427,-0.335L0.427,-0.337L0.424,-0.34L0.417,-0.34ZM0.408,-0.335L0.411,-0.328L0.417,-0.328L0.417,-0.331L0.415,-0.337L0.413,-0.337L0.411,-0.335L0.408,-0.335ZM0.057,-0.317L0.055,-0.31L0.057,-0.308L0.06,-0.308L0.062,-0.317L0.057,-0.317ZM0.257,-0.289L0.257,-0.082L0.25,-0.073L0.25,-0.07L0.257,-0.07L0.257,0.004L0.252,0.004L0.252,0.006L0.257,0.006L0.257,0.016L0.255,0.018L0.257,0.032C0.276,0.027 0.285,0.018 0.285,0.004C0.285,0.001 0.287,0 0.292,0L0.292,-0.005C0.287,-0.005 0.285,-0.007 0.285,-0.01L0.285,-0.033L0.287,-0.042L0.285,-0.049L0.287,-0.047L0.292,-0.047C0.292,-0.05 0.29,-0.052 0.285,-0.052L0.285,-0.061L0.287,-0.07L0.285,-0.08L0.285,-0.082L0.296,-0.082L0.294,-0.08L0.294,-0.077L0.299,-0.073L0.299,-0.07L0.292,-0.075L0.29,-0.075L0.296,-0.068L0.296,-0.065L0.304,-0.065L0.306,-0.068L0.306,-0.075L0.304,-0.08L0.294,-0.084L0.296,-0.086L0.296,-0.089C0.294,-0.097 0.29,-0.101 0.285,-0.101L0.285,-0.107L0.29,-0.107L0.29,-0.114L0.285,-0.114L0.285,-0.21L0.292,-0.21L0.292,-0.212L0.285,-0.212L0.285,-0.261C0.285,-0.274 0.276,-0.283 0.257,-0.289ZM0.301,-0.279L0.306,-0.279L0.313,-0.282L0.313,-0.287C0.305,-0.285 0.301,-0.282 0.301,-0.279ZM0.168,-0.27L0.168,-0.272L0.168,-0.27ZM0.21,-0.272L0.21,-0.27C0.218,-0.27 0.222,-0.267 0.222,-0.261L0.22,-0.259L0.222,-0.259C0.233,-0.263 0.238,-0.266 0.238,-0.27C0.226,-0.27 0.22,-0.272 0.22,-0.275L0.21,-0.272ZM0.35,-0.275L0.35,-0.27L0.357,-0.27L0.357,-0.275L0.35,-0.275ZM0.206,-0.259L0.204,-0.251L0.206,-0.251L0.21,-0.256L0.208,-0.259L0.206,-0.259ZM0.213,-0.254L0.213,-0.247L0.215,-0.247L0.217,-0.254L0.213,-0.254ZM0.476,-0.247L0.476,-0.245L0.485,-0.245L0.485,-0.247L0.476,-0.247ZM0.192,-0.23L0.192,-0.229L0.201,-0.229L0.201,-0.233L0.192,-0.23ZM0.292,-0.208L0.292,-0.203L0.301,-0.203L0.301,-0.201L0.287,-0.198L0.287,-0.193L0.299,-0.196L0.301,-0.196L0.301,-0.201L0.304,-0.201L0.306,-0.198L0.299,-0.208L0.299,-0.205L0.296,-0.208L0.292,-0.208ZM0.197,-0.18C0.197,-0.176 0.194,-0.175 0.189,-0.175L0.189,-0.17C0.199,-0.172 0.204,-0.175 0.204,-0.177L0.197,-0.18ZM0.204,-0.17L0.206,-0.161L0.208,-0.161L0.21,-0.163L0.213,-0.163L0.217,-0.159L0.22,-0.159L0.22,-0.163C0.215,-0.163 0.211,-0.166 0.206,-0.17L0.204,-0.17ZM0.18,-0.159L0.18,-0.156L0.189,-0.149L0.189,-0.154L0.18,-0.159ZM0.246,-0.131L0.246,-0.128L0.25,-0.124L0.25,-0.126L0.246,-0.131ZM0.464,-0.128L0.464,-0.122C0.464,-0.114 0.461,-0.109 0.455,-0.107L0.455,-0.11L0.459,-0.117L0.457,-0.119L0.459,-0.122L0.457,-0.122L0.448,-0.114L0.452,-0.114L0.445,-0.103L0.443,-0.103L0.436,-0.107L0.434,-0.105L0.434,-0.103L0.431,-0.105L0.427,-0.105L0.427,-0.103C0.427,-0.1 0.429,-0.098 0.434,-0.098L0.441,-0.101C0.441,-0.097 0.438,-0.096 0.434,-0.096C0.438,-0.092 0.441,-0.088 0.441,-0.084L0.443,-0.084L0.445,-0.103L0.448,-0.103L0.457,-0.101L0.466,-0.105L0.469,-0.103L0.469,-0.105L0.466,-0.107L0.485,-0.105L0.485,-0.103L0.476,-0.098L0.469,-0.101L0.448,-0.098L0.448,-0.096L0.476,-0.08L0.48,-0.086L0.473,-0.094L0.476,-0.094L0.478,-0.091L0.48,-0.094L0.485,-0.094L0.482,-0.091L0.482,-0.089L0.485,-0.086L0.487,-0.086L0.492,-0.091L0.492,-0.089L0.489,-0.086L0.489,-0.084L0.497,-0.084C0.497,-0.091 0.5,-0.096 0.506,-0.098L0.508,-0.096L0.51,-0.105L0.508,-0.105L0.506,-0.103L0.506,-0.101L0.497,-0.105L0.497,-0.103L0.499,-0.096L0.492,-0.091L0.489,-0.094L0.489,-0.096L0.494,-0.101L0.489,-0.101L0.489,-0.107L0.494,-0.107L0.489,-0.112L0.487,-0.11L0.48,-0.117L0.48,-0.112L0.478,-0.112C0.472,-0.112 0.469,-0.118 0.469,-0.128L0.464,-0.128ZM0.492,-0.122L0.492,-0.119L0.499,-0.117L0.499,-0.119L0.497,-0.122L0.499,-0.122L0.503,-0.117L0.497,-0.114L0.497,-0.107L0.503,-0.105L0.513,-0.107L0.513,-0.11L0.508,-0.11C0.507,-0.121 0.505,-0.126 0.501,-0.126L0.497,-0.126L0.492,-0.122ZM0.431,-0.117L0.429,-0.114L0.429,-0.112L0.438,-0.112L0.438,-0.114L0.431,-0.117ZM0.52,-0.114L0.52,-0.107L0.524,-0.107L0.524,-0.11L0.52,-0.114ZM0.306,-0.094L0.306,-0.086L0.304,-0.086L0.304,-0.091L0.299,-0.086L0.306,-0.084L0.306,-0.094ZM0.176,-0.096L0.176,-0.094L0.188,-0.082L0.189,-0.082L0.176,-0.096ZM0.285,-0.098L0.292,-0.091L0.29,-0.089L0.287,-0.089L0.285,-0.091L0.285,-0.098ZM0.466,-0.098L0.473,-0.096L0.473,-0.094L0.459,-0.091L0.459,-0.096L0.466,-0.098ZM0.513,-0.086L0.513,-0.084L0.52,-0.082L0.52,-0.086L0.513,-0.086ZM0.22,-0.08C0.22,-0.076 0.217,-0.075 0.213,-0.075L0.213,-0.073L0.217,-0.073L0.222,-0.08L0.22,-0.08ZM0.508,-0.07L0.513,-0.065L0.518,-0.077L0.52,-0.075L0.524,-0.075L0.52,-0.08C0.515,-0.08 0.513,-0.076 0.513,-0.07L0.508,-0.07ZM0.466,-0.077L0.466,-0.075L0.473,-0.073L0.476,-0.073L0.476,-0.075L0.469,-0.077L0.466,-0.077ZM0.492,-0.077L0.492,-0.075L0.494,-0.073L0.501,-0.073L0.501,-0.075L0.492,-0.077ZM0.194,-0.073L0.194,-0.07C0.201,-0.07 0.204,-0.069 0.204,-0.065L0.206,-0.065L0.21,-0.07L0.201,-0.073L0.194,-0.073ZM0.208,-0.061L0.21,-0.054L0.215,-0.054L0.215,-0.059L0.208,-0.061ZM0.296,-0.047L0.296,-0.042L0.304,-0.04L0.304,-0.047L0.296,-0.047ZM0.518,-0.045L0.515,-0.042L0.515,-0.036L0.518,-0.036L0.52,-0.045L0.518,-0.045ZM0.238,-0.024L0.248,-0.021L0.25,-0.024L0.25,-0.028L0.243,-0.028L0.238,-0.024ZM0.199,-0.026L0.199,-0.021L0.206,-0.021L0.201,-0.026L0.199,-0.026ZM0.489,-0.026L0.489,-0.019L0.497,-0.019L0.494,-0.026L0.489,-0.026ZM0.296,-0.021L0.296,-0.015L0.299,-0.015L0.304,-0.019L0.301,-0.021L0.296,-0.021ZM0.225,-0.01L0.225,-0.007L0.227,-0.01L0.229,-0.01L0.241,-0.007L0.241,-0.012C0.236,-0.012 0.234,-0.014 0.234,-0.017L0.225,-0.01ZM0.304,-0.015L0.304,-0.01L0.306,-0.01L0.304,-0.015ZM0.227,-0.005L0.231,0L0.234,0L0.234,-0.005L0.227,-0.005ZM0.296,0.001L0.296,0.004L0.301,0.004L0.301,-0.003L0.296,0.001ZM0.225,0.016L0.225,0.02L0.231,0.025L0.231,0.02L0.227,0.016L0.225,0.016ZM0.197,0.027L0.199,0.027L0.204,0.022L0.201,0.022L0.197,0.027ZM0.18,0.034L0.189,0.032L0.189,0.027L0.188,0.027L0.18,0.034ZM0.171,0.029L0.168,0.041L0.171,0.048L0.168,0.05L0.173,0.05L0.173,0.057L0.176,0.057L0.176,0.053L0.178,0.053L0.178,0.057L0.185,0.057L0.185,0.05L0.176,0.043L0.173,0.041L0.173,0.039L0.178,0.034L0.173,0.029L0.171,0.029ZM0.238,0.029L0.241,0.032L0.241,0.034L0.238,0.037L0.238,0.041L0.241,0.041L0.246,0.032L0.243,0.029L0.238,0.029ZM0.02,0.034L0.015,0.043L0.02,0.043L0.024,0.039L0.02,0.034ZM0.28,0.037L0.28,0.039L0.29,0.039L0.29,0.037L0.292,0.039L0.299,0.039L0.301,0.037L0.304,0.037L0.304,0.041L0.306,0.041L0.301,0.034L0.299,0.037L0.296,0.037L0.294,0.034L0.292,0.034L0.28,0.037ZM0.499,0.039C0.499,0.043 0.504,0.046 0.515,0.048C0.515,0.045 0.51,0.042 0.499,0.039ZM0.283,0.043L0.285,0.053L0.287,0.053L0.29,0.05L0.292,0.05L0.296,0.055L0.299,0.055L0.299,0.053L0.283,0.043ZM0.257,0.05L0.264,0.05L0.264,0.046L0.262,0.046L0.257,0.05ZM0.506,0.05L0.506,0.053L0.513,0.055L0.515,0.053L0.515,0.05L0.506,0.05ZM0.259,0.062L0.257,0.074L0.262,0.074L0.262,0.076L0.255,0.076L0.257,0.078L0.257,0.081L0.241,0.083L0.241,0.087L0.248,0.09L0.264,0.078L0.271,0.083L0.271,0.078C0.265,0.078 0.262,0.073 0.262,0.062L0.259,0.062ZM0.246,0.069L0.246,0.074L0.248,0.074L0.252,0.069L0.246,0.069ZM0.048,0.078L0.05,0.081L0.05,0.09L0.045,0.09L0.05,0.108L0.048,0.106L0.043,0.106L0.043,0.108L0.045,0.111L0.045,0.113L0.057,0.106L0.062,0.106L0.062,0.108L0.06,0.111L0.06,0.113L0.066,0.113L0.066,0.108L0.069,0.108L0.069,0.115L0.076,0.115C0.076,0.111 0.077,0.108 0.081,0.108L0.078,0.106C0.089,0.108 0.09,0.108 0.083,0.108L0.081,0.111L0.081,0.115L0.085,0.115L0.085,0.111L0.094,0.111L0.094,0.118L0.097,0.118L0.101,0.113L0.097,0.113L0.097,0.108L0.099,0.111L0.101,0.111L0.104,0.108L0.106,0.108L0.106,0.111L0.087,0.129L0.087,0.132L0.094,0.132L0.094,0.127L0.097,0.129L0.099,0.129L0.099,0.125L0.104,0.125C0.104,0.129 0.105,0.132 0.108,0.132L0.11,0.132L0.115,0.127L0.106,0.125L0.106,0.123C0.114,0.123 0.118,0.121 0.118,0.118L0.118,0.115L0.115,0.113L0.118,0.106L0.06,0.074L0.057,0.076L0.057,0.078L0.062,0.078L0.062,0.083L0.052,0.083L0.055,0.071L0.048,0.078ZM0.032,0.074L0.034,0.081L0.039,0.076L0.032,0.074ZM0.231,0.076L0.231,0.078L0.238,0.081L0.238,0.076L0.231,0.076ZM0.168,0.078L0.168,0.085L0.173,0.092C0.18,0.089 0.184,0.085 0.185,0.081L0.185,0.078L0.183,0.078C0.183,0.082 0.18,0.084 0.173,0.085C0.173,0.081 0.172,0.078 0.168,0.078ZM0.252,0.106L0.252,0.108L0.259,0.113L0.264,0.113L0.264,0.111L0.259,0.106L0.257,0.108L0.255,0.108L0.252,0.106ZM0.306,0.113L0.306,0.123L0.308,0.123C0.308,0.119 0.312,0.114 0.32,0.108L0.315,0.108L0.306,0.113ZM0.027,0.113L0.034,0.12L0.034,0.118L0.029,0.113L0.027,0.113ZM0.018,0.115L0.018,0.118L0.029,0.127L0.029,0.12L0.02,0.115L0.018,0.115ZM0.043,0.118L0.041,0.12L0.041,0.123L0.043,0.125L0.039,0.125L0.039,0.127C0.042,0.127 0.046,0.129 0.05,0.134L0.057,0.123L0.043,0.118ZM0.213,0.12L0.213,0.125L0.215,0.127L0.215,0.129L0.208,0.129L0.208,0.134L0.21,0.134L0.22,0.129L0.217,0.12L0.213,0.12ZM0.225,0.123L0.225,0.125L0.229,0.129L0.229,0.127L0.227,0.125L0.229,0.123L0.225,0.123ZM0.283,0.127L0.287,0.132L0.292,0.132L0.292,0.127L0.283,0.127ZM0.299,0.129L0.299,0.132L0.301,0.132L0.313,0.129L0.313,0.127L0.306,0.127L0.299,0.129ZM0.313,0.132L0.313,0.134L0.32,0.134L0.32,0.129L0.313,0.132ZM0.055,0.132L0.052,0.134L0.052,0.136C0.057,0.136 0.06,0.139 0.06,0.144L0.062,0.141L0.064,0.141C0.063,0.136 0.06,0.133 0.055,0.132ZM0.085,0.136L0.083,0.144L0.085,0.141L0.092,0.141L0.092,0.146L0.097,0.146L0.097,0.141L0.104,0.141L0.106,0.144L0.108,0.144L0.108,0.141L0.104,0.136L0.097,0.136L0.097,0.141L0.085,0.136ZM0.12,0.148L0.113,0.146L0.113,0.15L0.127,0.153L0.127,0.144L0.12,0.148Z" style="fill:rgb(154,55,65);fill-rule:nonzero;"/>
            </g>
            <g transform="matrix(13.7264,0,0,13.7264,28.6309,36.098)">
                <path d="M0.021,-0.832L0.436,-0.832C0.448,-0.832 0.454,-0.824 0.454,-0.807L0.454,-0.698C0.454,-0.681 0.446,-0.672 0.429,-0.672L0.306,-0.672L0.304,-0.674L0.301,-0.672L0.25,-0.672L0.248,-0.645L0.25,-0.645L0.248,-0.637L0.25,-0.605L0.248,-0.598L0.25,-0.591L0.248,-0.589L0.248,-0.586L0.25,-0.577L0.248,-0.575L0.248,-0.573L0.25,-0.565L0.243,-0.563L0.243,-0.561C0.248,-0.561 0.25,-0.559 0.25,-0.556L0.248,-0.549L0.25,-0.538L0.25,-0.438L0.333,-0.438L0.352,-0.434L0.352,-0.438L0.354,-0.436L0.357,-0.438L0.361,-0.438L0.368,-0.436L0.38,-0.438L0.417,-0.438C0.425,-0.438 0.43,-0.434 0.433,-0.427L0.433,-0.304C0.433,-0.291 0.427,-0.285 0.415,-0.285L0.25,-0.285L0.25,0.025L0.433,0.025C0.449,0.025 0.457,0.031 0.457,0.043L0.457,0.164C0.457,0.178 0.45,0.185 0.436,0.185L0.025,0.185C0.008,0.185 0,0.176 0,0.159L0,-0.174L0.002,-0.176L0,-0.179L0,-0.301L0.002,-0.311L0,-0.32L0,-0.39L0.002,-0.392L0,-0.394L0,-0.401L0.002,-0.403L0,-0.406L0,-0.633L0.002,-0.677L0,-0.702L0.002,-0.709L0,-0.711L0.002,-0.723L0,-0.735L0.002,-0.737L0,-0.749L0,-0.755L0.002,-0.758L0,-0.76L0,-0.781L0.002,-0.783L0,-0.791L0.002,-0.809L0,-0.811L0,-0.813C0,-0.824 0.007,-0.83 0.021,-0.832ZM0.389,-0.779L0.389,-0.776L0.394,-0.772L0.396,-0.772L0.389,-0.779ZM0.014,-0.751L0.012,-0.744L0.014,-0.744L0.016,-0.746L0.016,-0.751L0.014,-0.751ZM0.06,-0.735L0.06,-0.732L0.067,-0.73L0.067,-0.735L0.06,-0.735ZM0.007,-0.732L0.004,-0.73L0.004,-0.726L0.012,-0.728L0.007,-0.732ZM0.072,-0.728L0.072,-0.726C0.072,-0.722 0.075,-0.721 0.081,-0.721L0.081,-0.716L0.086,-0.716L0.086,-0.721L0.081,-0.726L0.079,-0.723L0.077,-0.723L0.072,-0.728ZM0.206,-0.658L0.206,-0.656L0.211,-0.661L0.211,-0.663L0.206,-0.658ZM0.132,-0.573L0.132,-0.57L0.146,-0.57L0.144,-0.577L0.137,-0.577L0.132,-0.573ZM0.19,-0.57L0.19,-0.568L0.199,-0.565L0.199,-0.568L0.197,-0.57L0.19,-0.57ZM0.202,-0.568L0.202,-0.565L0.206,-0.561L0.211,-0.561L0.211,-0.568L0.202,-0.568ZM0.097,-0.492L0.097,-0.489L0.106,-0.489L0.106,-0.492L0.097,-0.492ZM0.354,-0.429L0.354,-0.424L0.366,-0.422L0.366,-0.424L0.361,-0.431L0.354,-0.429ZM0.317,-0.429L0.313,-0.424L0.313,-0.422L0.317,-0.422L0.32,-0.424L0.32,-0.429L0.317,-0.429ZM0.324,-0.424L0.324,-0.422L0.329,-0.427L0.329,-0.429L0.324,-0.424ZM0.338,-0.382L0.311,-0.41L0.315,-0.41L0.317,-0.417L0.338,-0.382ZM0.382,-0.38L0.382,-0.375L0.385,-0.375L0.389,-0.38L0.389,-0.382L0.382,-0.38ZM0.26,-0.36L0.276,-0.371L0.28,-0.366L0.283,-0.366L0.283,-0.369L0.28,-0.375L0.283,-0.375L0.285,-0.374L0.287,-0.374L0.287,-0.378L0.28,-0.378L0.26,-0.36ZM0.327,-0.311L0.327,-0.306L0.329,-0.309L0.336,-0.309L0.336,-0.304L0.338,-0.304L0.338,-0.311L0.327,-0.311ZM0.327,-0.299L0.333,-0.299L0.333,-0.304L0.332,-0.304L0.327,-0.299ZM0.046,-0.225C0.046,-0.221 0.04,-0.216 0.03,-0.211L0.03,-0.209L0.032,-0.211L0.037,-0.211L0.037,-0.207C0.033,-0.207 0.03,-0.205 0.03,-0.202L0.032,-0.2L0.035,-0.2L0.04,-0.207L0.042,-0.204L0.051,-0.204L0.051,-0.207L0.049,-0.209L0.049,-0.211C0.056,-0.213 0.06,-0.215 0.06,-0.218L0.06,-0.22L0.056,-0.22L0.053,-0.218L0.051,-0.218C0.051,-0.223 0.049,-0.225 0.046,-0.225ZM0.067,-0.209L0.067,-0.204L0.074,-0.2L0.074,-0.204L0.069,-0.209L0.067,-0.209ZM0.072,-0.174L0.077,-0.174L0.083,-0.176L0.083,-0.179L0.077,-0.179L0.072,-0.174ZM0.083,-0.174L0.083,-0.172L0.137,-0.086L0.09,-0.169L0.09,-0.172L0.083,-0.174Z" style="fill:rgb(154,55,65);fill-rule:nonzero;"/>
            </g>
            <g transform="matrix(13.7264,0,0,13.7264,13.4836,51.7991)">
                <path d="M0.021,-0.828L0.16,-0.828L0.169,-0.826L0.178,-0.828L0.185,-0.828L0.183,-0.826L0.183,-0.824L0.194,-0.819L0.201,-0.821L0.201,-0.826L0.194,-0.826L0.194,-0.828L0.206,-0.828L0.204,-0.826L0.204,-0.821L0.21,-0.821L0.21,-0.828L0.215,-0.828L0.215,-0.824L0.217,-0.824L0.217,-0.828L0.225,-0.828L0.225,-0.824L0.227,-0.824L0.227,-0.828L0.243,-0.828L0.245,-0.826L0.248,-0.828L0.252,-0.828L0.259,-0.826L0.271,-0.828L0.317,-0.828L0.317,-0.826L0.312,-0.826L0.319,-0.814L0.321,-0.814L0.324,-0.826L0.321,-0.828L0.347,-0.828L0.354,-0.824L0.358,-0.824L0.356,-0.826L0.356,-0.828L0.358,-0.828L0.361,-0.826L0.363,-0.828L0.379,-0.828L0.395,-0.826L0.397,-0.828L0.397,-0.824L0.393,-0.824L0.393,-0.819L0.4,-0.819L0.397,-0.821L0.397,-0.824L0.402,-0.824C0.407,-0.824 0.409,-0.821 0.409,-0.816L0.412,-0.814L0.414,-0.814L0.416,-0.816L0.42,-0.807C0.41,-0.804 0.404,-0.801 0.404,-0.798L0.404,-0.796C0.41,-0.796 0.414,-0.794 0.414,-0.791L0.407,-0.789L0.402,-0.793L0.393,-0.793L0.393,-0.791L0.395,-0.784L0.393,-0.787L0.391,-0.787C0.391,-0.782 0.388,-0.78 0.384,-0.78L0.384,-0.777L0.391,-0.777L0.386,-0.773L0.386,-0.775L0.375,-0.773L0.375,-0.771L0.381,-0.771L0.377,-0.764L0.377,-0.761L0.386,-0.759L0.384,-0.756L0.384,-0.75L0.386,-0.747L0.384,-0.745L0.384,-0.74L0.386,-0.74L0.386,-0.745L0.388,-0.743L0.393,-0.743L0.393,-0.747L0.4,-0.747L0.4,-0.743L0.395,-0.743L0.395,-0.74L0.397,-0.74L0.412,-0.743L0.412,-0.738L0.407,-0.738C0.407,-0.736 0.412,-0.733 0.423,-0.729L0.423,-0.727L0.42,-0.715L0.423,-0.713L0.414,-0.713L0.414,-0.71L0.416,-0.708L0.416,-0.706L0.418,-0.708L0.42,-0.708L0.432,-0.704L0.432,-0.706L0.441,-0.717L0.439,-0.717L0.428,-0.708L0.425,-0.708L0.425,-0.713L0.428,-0.715L0.425,-0.717L0.425,-0.724L0.43,-0.74C0.421,-0.745 0.416,-0.751 0.416,-0.759L0.414,-0.759L0.412,-0.756L0.409,-0.756L0.404,-0.764L0.404,-0.766L0.414,-0.766L0.414,-0.761L0.416,-0.761L0.432,-0.764L0.432,-0.759L0.43,-0.75L0.43,-0.747L0.432,-0.747L0.432,-0.752L0.435,-0.752C0.435,-0.748 0.438,-0.745 0.444,-0.743L0.453,-0.75L0.451,-0.752L0.455,-0.756L0.455,-0.759L0.451,-0.759L0.451,-0.764L0.455,-0.764L0.455,-0.766L0.453,-0.768L0.453,-0.771L0.455,-0.773C0.45,-0.778 0.444,-0.78 0.439,-0.78L0.439,-0.782L0.441,-0.784L0.441,-0.787C0.436,-0.787 0.432,-0.789 0.428,-0.793L0.428,-0.784L0.42,-0.784L0.42,-0.789L0.425,-0.789L0.425,-0.791C0.425,-0.794 0.421,-0.796 0.412,-0.796L0.412,-0.798L0.414,-0.8L0.414,-0.803L0.416,-0.8L0.425,-0.8L0.425,-0.805L0.428,-0.805L0.425,-0.807L0.425,-0.81L0.428,-0.812L0.428,-0.814L0.425,-0.821L0.428,-0.824L0.425,-0.826L0.428,-0.828L0.43,-0.828C0.43,-0.822 0.431,-0.819 0.435,-0.819L0.446,-0.821L0.448,-0.819L0.451,-0.821L0.451,-0.824L0.446,-0.824L0.446,-0.828L0.453,-0.828L0.453,-0.824L0.458,-0.824L0.458,-0.828L0.485,-0.828C0.493,-0.826 0.497,-0.819 0.497,-0.807L0.497,-0.761L0.495,-0.759L0.497,-0.756L0.497,-0.692L0.495,-0.689L0.497,-0.683L0.49,-0.673L0.483,-0.676L0.483,-0.669L0.377,-0.669L0.377,-0.597L0.375,-0.595L0.377,-0.593L0.377,-0.403L0.375,-0.401L0.377,-0.398L0.377,0.165C0.377,0.179 0.368,0.186 0.352,0.186L0.148,0.186C0.136,0.186 0.13,0.18 0.13,0.169L0.13,-0.214L0.132,-0.226L0.13,-0.239L0.13,-0.475L0.132,-0.473L0.139,-0.473L0.139,-0.475L0.132,-0.498L0.139,-0.489L0.139,-0.484L0.139,-0.509L0.137,-0.498L0.132,-0.502L0.132,-0.505L0.139,-0.517L0.137,-0.519L0.132,-0.519L0.134,-0.517L0.132,-0.509L0.13,-0.509L0.13,-0.523L0.132,-0.533L0.13,-0.542L0.13,-0.544C0.133,-0.544 0.134,-0.542 0.134,-0.537L0.137,-0.537L0.137,-0.549L0.197,-0.523L0.197,-0.517L0.206,-0.517C0.204,-0.526 0.202,-0.53 0.199,-0.53L0.199,-0.526L0.197,-0.526L0.197,-0.53L0.137,-0.583L0.139,-0.583L0.192,-0.577L0.194,-0.583L0.192,-0.595L0.194,-0.595L0.197,-0.597L0.197,-0.602L0.192,-0.606L0.192,-0.609L0.145,-0.586L0.139,-0.664L0.137,-0.664L0.137,-0.669L0.134,-0.669L0.134,-0.662C0.134,-0.659 0.136,-0.635 0.139,-0.59L0.139,-0.593L0.134,-0.597L0.132,-0.595L0.13,-0.595L0.13,-0.606L0.132,-0.606L0.132,-0.602L0.139,-0.602L0.13,-0.616L0.13,-0.62L0.132,-0.62L0.137,-0.616L0.134,-0.613L0.139,-0.627L0.137,-0.636L0.139,-0.639L0.137,-0.644L0.13,-0.641L0.13,-0.644L0.132,-0.646L0.132,-0.648L0.13,-0.65L0.132,-0.65L0.139,-0.646L0.139,-0.655L0.13,-0.653L0.13,-0.669C0.125,-0.669 0.123,-0.672 0.123,-0.678L0.127,-0.678L0.127,-0.68L0.123,-0.68C0.123,-0.676 0.119,-0.673 0.111,-0.673L0.111,-0.671L0.123,-0.671L0.123,-0.669L0.04,-0.669L0.017,-0.671L0.017,-0.673L0.021,-0.68L0.019,-0.678L0.01,-0.678L0.012,-0.689L0.01,-0.692L0.007,-0.692L0.01,-0.704L0.007,-0.706L0.01,-0.708L0.01,-0.71L0.007,-0.713L0.01,-0.715L0.01,-0.731L0.007,-0.733L0.007,-0.736L0.01,-0.736L0.007,-0.738L0.007,-0.74C0.008,-0.75 0.01,-0.754 0.012,-0.754L0.007,-0.761L0.01,-0.773L0.01,-0.775L0.007,-0.777L0.007,-0.78L0.01,-0.78L0.007,-0.782L0.007,-0.784L0.012,-0.793L0.007,-0.807C0.007,-0.815 0.012,-0.822 0.021,-0.828ZM0.435,-0.828L0.444,-0.828L0.435,-0.821L0.435,-0.828ZM0.241,-0.824L0.241,-0.821L0.248,-0.814L0.248,-0.816L0.241,-0.824ZM0.254,-0.824L0.254,-0.821L0.257,-0.812L0.25,-0.812L0.252,-0.805L0.254,-0.805C0.257,-0.805 0.259,-0.807 0.259,-0.812L0.264,-0.812L0.273,-0.803L0.271,-0.8L0.273,-0.8L0.28,-0.803L0.28,-0.807L0.273,-0.807L0.275,-0.81L0.275,-0.812L0.254,-0.824ZM0.16,-0.814L0.16,-0.812L0.165,-0.812C0.169,-0.814 0.172,-0.817 0.173,-0.821L0.16,-0.814ZM0.416,-0.824L0.418,-0.824L0.418,-0.819L0.412,-0.816L0.412,-0.819L0.416,-0.824ZM0.352,-0.819L0.352,-0.812L0.356,-0.812L0.356,-0.819L0.352,-0.819ZM0.402,-0.819L0.402,-0.81L0.409,-0.807L0.409,-0.81C0.406,-0.81 0.404,-0.813 0.404,-0.819L0.402,-0.819ZM0.065,-0.816C0.065,-0.813 0.063,-0.812 0.058,-0.812L0.058,-0.807L0.056,-0.807L0.058,-0.805L0.058,-0.8L0.056,-0.8L0.054,-0.803L0.051,-0.803L0.051,-0.8L0.054,-0.798L0.054,-0.796L0.051,-0.793L0.054,-0.791C0.05,-0.791 0.046,-0.788 0.042,-0.782L0.044,-0.78L0.046,-0.78C0.046,-0.782 0.053,-0.785 0.065,-0.789C0.065,-0.784 0.067,-0.782 0.07,-0.782L0.072,-0.782L0.079,-0.796L0.079,-0.798L0.077,-0.8L0.083,-0.8L0.083,-0.796L0.09,-0.796L0.09,-0.798C0.087,-0.798 0.086,-0.801 0.086,-0.807L0.081,-0.812L0.079,-0.81L0.072,-0.81L0.074,-0.812L0.074,-0.814L0.065,-0.816ZM0.028,-0.812L0.028,-0.807L0.03,-0.807L0.035,-0.812L0.035,-0.814L0.028,-0.812ZM0.137,-0.812L0.137,-0.807L0.139,-0.807L0.144,-0.812L0.137,-0.812ZM0.287,-0.812L0.284,-0.81L0.284,-0.807L0.287,-0.807L0.293,-0.81L0.293,-0.812L0.287,-0.812ZM0.021,-0.81L0.021,-0.8L0.026,-0.805L0.026,-0.81L0.021,-0.81ZM0.176,-0.796L0.183,-0.796L0.188,-0.8L0.185,-0.803L0.183,-0.803L0.183,-0.798L0.178,-0.798C0.178,-0.804 0.182,-0.807 0.19,-0.807L0.19,-0.81L0.185,-0.81C0.179,-0.808 0.176,-0.803 0.176,-0.796ZM0.312,-0.807L0.312,-0.805L0.317,-0.805L0.317,-0.803L0.324,-0.805L0.324,-0.81L0.312,-0.807ZM0.435,-0.81L0.43,-0.805L0.432,-0.793L0.437,-0.793L0.437,-0.798L0.435,-0.8L0.435,-0.803L0.441,-0.803L0.441,-0.81L0.435,-0.81ZM0.072,-0.807L0.074,-0.798L0.065,-0.798L0.063,-0.807L0.067,-0.807L0.07,-0.81L0.072,-0.807ZM0.444,-0.805L0.444,-0.8L0.446,-0.8L0.448,-0.803L0.451,-0.8L0.455,-0.8L0.451,-0.807L0.444,-0.805ZM0.118,-0.798C0.118,-0.795 0.122,-0.793 0.13,-0.791L0.132,-0.791L0.132,-0.793L0.118,-0.798ZM0.439,-0.793L0.439,-0.789L0.453,-0.791L0.453,-0.796L0.439,-0.793ZM0.282,-0.793C0.282,-0.788 0.278,-0.785 0.268,-0.784L0.268,-0.782L0.273,-0.782L0.28,-0.784L0.284,-0.78L0.284,-0.782L0.282,-0.784C0.285,-0.784 0.287,-0.786 0.287,-0.791L0.289,-0.791L0.289,-0.787L0.293,-0.787L0.293,-0.793L0.282,-0.793ZM0.088,-0.782L0.09,-0.782L0.095,-0.787L0.093,-0.787L0.088,-0.782ZM0.358,-0.768L0.358,-0.766L0.363,-0.761L0.37,-0.764L0.37,-0.766L0.368,-0.768L0.368,-0.771L0.377,-0.775L0.377,-0.784L0.375,-0.784L0.368,-0.78L0.368,-0.787L0.365,-0.787C0.361,-0.786 0.358,-0.779 0.358,-0.768ZM0.026,-0.78L0.028,-0.777L0.028,-0.775L0.026,-0.773L0.028,-0.771L0.03,-0.771L0.03,-0.775L0.042,-0.773L0.044,-0.775L0.046,-0.773L0.046,-0.777L0.035,-0.777L0.037,-0.78L0.037,-0.784L0.026,-0.78ZM0.054,-0.777L0.054,-0.775L0.056,-0.777L0.058,-0.775L0.063,-0.775L0.063,-0.784L0.061,-0.784L0.054,-0.777ZM0.134,-0.784L0.134,-0.78L0.132,-0.78L0.13,-0.782L0.127,-0.782L0.127,-0.78L0.13,-0.777L0.127,-0.766L0.125,-0.766L0.125,-0.773L0.123,-0.773L0.118,-0.768C0.118,-0.764 0.122,-0.761 0.13,-0.761L0.13,-0.759L0.114,-0.759L0.114,-0.764L0.109,-0.764L0.109,-0.761L0.111,-0.754L0.109,-0.756L0.104,-0.756L0.109,-0.747L0.121,-0.754L0.123,-0.752L0.125,-0.752L0.134,-0.754L0.132,-0.756L0.132,-0.759L0.139,-0.764L0.141,-0.761L0.146,-0.777L0.137,-0.784L0.134,-0.784ZM0.418,-0.78L0.42,-0.777L0.423,-0.777L0.425,-0.78L0.428,-0.777L0.428,-0.775L0.418,-0.775L0.418,-0.78ZM0.254,-0.773C0.254,-0.767 0.252,-0.764 0.248,-0.764L0.252,-0.759L0.254,-0.761L0.254,-0.756L0.257,-0.756L0.259,-0.766L0.257,-0.773L0.254,-0.773ZM0.042,-0.771L0.044,-0.764L0.046,-0.764L0.046,-0.768L0.044,-0.771L0.042,-0.771ZM0.088,-0.759L0.083,-0.754L0.083,-0.752L0.088,-0.752L0.09,-0.754L0.09,-0.759L0.088,-0.759ZM0.208,-0.756L0.208,-0.752L0.215,-0.759L0.208,-0.756ZM0.347,-0.759L0.344,-0.756L0.344,-0.754L0.352,-0.754L0.347,-0.759ZM0.42,-0.756L0.42,-0.754L0.425,-0.754L0.428,-0.756L0.428,-0.759L0.42,-0.756ZM0.361,-0.756L0.361,-0.754L0.368,-0.747L0.368,-0.745L0.372,-0.75L0.368,-0.75C0.368,-0.754 0.366,-0.756 0.363,-0.756L0.361,-0.756ZM0.377,-0.756L0.377,-0.754L0.381,-0.75L0.381,-0.756L0.377,-0.756ZM0.479,-0.756L0.479,-0.752L0.483,-0.752L0.488,-0.756L0.479,-0.756ZM0.485,-0.75L0.49,-0.745L0.492,-0.745L0.492,-0.75L0.485,-0.75ZM0.07,-0.747L0.065,-0.743L0.065,-0.738L0.072,-0.74L0.072,-0.747L0.07,-0.747ZM0.377,-0.747L0.375,-0.745L0.375,-0.743L0.377,-0.74L0.377,-0.743L0.379,-0.745L0.379,-0.747L0.377,-0.747ZM0.435,-0.743L0.432,-0.733L0.435,-0.731L0.437,-0.731L0.439,-0.733L0.439,-0.736L0.437,-0.743L0.435,-0.743ZM0.056,-0.74L0.061,-0.736L0.063,-0.738L0.063,-0.74L0.056,-0.74ZM0.233,-0.74L0.238,-0.736L0.241,-0.736L0.241,-0.74L0.233,-0.74ZM0.458,-0.738L0.455,-0.736L0.455,-0.731L0.458,-0.731L0.462,-0.736L0.46,-0.738L0.458,-0.738ZM0.165,-0.736C0.165,-0.733 0.162,-0.731 0.157,-0.731L0.162,-0.727L0.167,-0.736L0.165,-0.736ZM0.352,-0.733L0.349,-0.727L0.352,-0.724L0.347,-0.724L0.347,-0.72L0.361,-0.72L0.358,-0.722L0.358,-0.729L0.365,-0.724L0.365,-0.729L0.361,-0.729C0.361,-0.734 0.358,-0.736 0.352,-0.736L0.352,-0.733ZM0.121,-0.733L0.121,-0.729L0.127,-0.727L0.127,-0.731L0.121,-0.733ZM0.204,-0.727L0.204,-0.724L0.208,-0.72L0.222,-0.72L0.222,-0.722L0.204,-0.727ZM0.114,-0.722L0.114,-0.72L0.123,-0.717L0.125,-0.72L0.125,-0.724L0.114,-0.722ZM0.407,-0.724L0.404,-0.713L0.412,-0.708L0.412,-0.717L0.409,-0.72L0.409,-0.722L0.412,-0.724L0.407,-0.724ZM0.472,-0.722L0.474,-0.715L0.476,-0.715L0.479,-0.722L0.472,-0.722ZM0.333,-0.715L0.333,-0.704L0.344,-0.696L0.349,-0.696L0.349,-0.701L0.347,-0.701L0.344,-0.699L0.342,-0.699L0.34,-0.71L0.344,-0.71L0.344,-0.715L0.342,-0.715L0.335,-0.71L0.335,-0.715L0.333,-0.715ZM0.225,-0.71L0.225,-0.708L0.229,-0.704L0.231,-0.704L0.231,-0.713L0.225,-0.71ZM0.061,-0.71L0.061,-0.704L0.065,-0.699L0.065,-0.701L0.063,-0.708L0.065,-0.71L0.061,-0.71ZM0.118,-0.71L0.118,-0.708L0.121,-0.706L0.125,-0.706L0.125,-0.71L0.123,-0.708L0.121,-0.708L0.118,-0.71ZM0.019,-0.708L0.019,-0.701L0.021,-0.701L0.023,-0.704L0.026,-0.704L0.028,-0.701L0.03,-0.708L0.028,-0.708L0.021,-0.706L0.019,-0.708ZM0.125,-0.699L0.125,-0.696L0.13,-0.696L0.13,-0.704L0.125,-0.699ZM0.116,-0.694L0.111,-0.678L0.111,-0.676C0.114,-0.676 0.116,-0.678 0.116,-0.683L0.13,-0.685L0.13,-0.683L0.134,-0.676L0.132,-0.673L0.132,-0.671L0.134,-0.671L0.146,-0.685L0.144,-0.683L0.141,-0.683C0.132,-0.684 0.127,-0.687 0.127,-0.689L0.125,-0.688L0.121,-0.688L0.123,-0.689L0.123,-0.692L0.121,-0.694L0.116,-0.694ZM0.081,-0.688L0.081,-0.685L0.09,-0.683L0.09,-0.688L0.081,-0.688ZM0.409,-0.68L0.414,-0.673L0.407,-0.673L0.407,-0.671L0.414,-0.671L0.42,-0.673L0.428,-0.671L0.43,-0.673L0.43,-0.683L0.42,-0.683L0.409,-0.68ZM0.09,-0.678L0.09,-0.676L0.104,-0.673L0.1,-0.678L0.09,-0.678ZM0.331,-0.66L0.333,-0.657L0.333,-0.655L0.331,-0.653L0.335,-0.653L0.335,-0.66L0.331,-0.66ZM0.34,-0.641L0.34,-0.636L0.337,-0.636L0.34,-0.634L0.34,-0.632L0.337,-0.625L0.34,-0.627L0.342,-0.627L0.342,-0.62L0.333,-0.618L0.333,-0.616L0.352,-0.613C0.352,-0.617 0.354,-0.618 0.358,-0.618L0.358,-0.62C0.358,-0.623 0.356,-0.625 0.352,-0.625L0.352,-0.627L0.358,-0.636L0.356,-0.636L0.356,-0.634L0.342,-0.639L0.342,-0.641L0.34,-0.641ZM0.333,-0.613L0.333,-0.611L0.34,-0.604L0.34,-0.606L0.335,-0.611L0.337,-0.613L0.333,-0.613ZM0.217,-0.606L0.217,-0.604L0.225,-0.606L0.225,-0.611L0.222,-0.611L0.217,-0.606ZM0.222,-0.604L0.222,-0.6L0.227,-0.6L0.227,-0.604L0.229,-0.602L0.231,-0.602L0.231,-0.606L0.229,-0.606L0.222,-0.604ZM0.206,-0.597L0.206,-0.595L0.208,-0.593L0.208,-0.59L0.213,-0.59L0.217,-0.581L0.21,-0.581C0.212,-0.573 0.215,-0.569 0.217,-0.569L0.213,-0.558L0.22,-0.553L0.222,-0.553C0.222,-0.563 0.224,-0.567 0.229,-0.567L0.227,-0.577L0.222,-0.577C0.222,-0.572 0.221,-0.569 0.217,-0.569L0.215,-0.572L0.215,-0.574L0.222,-0.585L0.208,-0.595L0.21,-0.597L0.21,-0.602L0.206,-0.597ZM0.215,-0.602L0.213,-0.6L0.215,-0.593L0.22,-0.597L0.215,-0.602ZM0.233,-0.593L0.243,-0.588L0.245,-0.588L0.245,-0.59L0.238,-0.597L0.233,-0.593ZM0.284,-0.577L0.287,-0.574L0.289,-0.574L0.289,-0.581L0.284,-0.577ZM0.292,-0.572L0.292,-0.567L0.308,-0.567L0.312,-0.577L0.31,-0.579L0.303,-0.579C0.299,-0.574 0.295,-0.572 0.292,-0.572ZM0.312,-0.572L0.312,-0.567L0.319,-0.567L0.319,-0.569L0.312,-0.572ZM0.248,-0.567L0.248,-0.563L0.257,-0.563L0.257,-0.567L0.248,-0.567ZM0.308,-0.565L0.305,-0.556L0.31,-0.556L0.312,-0.565L0.308,-0.565ZM0.361,-0.565C0.361,-0.56 0.358,-0.558 0.354,-0.558L0.358,-0.551L0.356,-0.551L0.361,-0.542L0.352,-0.542L0.356,-0.535L0.352,-0.535L0.352,-0.533L0.358,-0.533L0.361,-0.542L0.37,-0.537L0.368,-0.54L0.368,-0.556C0.364,-0.556 0.363,-0.559 0.363,-0.565L0.361,-0.565ZM0.248,-0.553L0.245,-0.556L0.243,-0.556L0.243,-0.551L0.245,-0.551L0.248,-0.553L0.25,-0.553L0.25,-0.549L0.252,-0.549C0.252,-0.553 0.254,-0.556 0.259,-0.556L0.261,-0.556L0.261,-0.56L0.259,-0.56C0.251,-0.56 0.248,-0.558 0.248,-0.553ZM0.134,-0.558L0.137,-0.553L0.134,-0.556L0.134,-0.558ZM0.292,-0.556L0.296,-0.551L0.298,-0.553L0.298,-0.556L0.292,-0.556ZM0.199,-0.551L0.199,-0.549L0.194,-0.54L0.197,-0.54L0.201,-0.546L0.201,-0.549L0.199,-0.551ZM0.227,-0.553L0.229,-0.551L0.229,-0.549L0.227,-0.546L0.227,-0.544L0.236,-0.54L0.236,-0.542L0.231,-0.551L0.233,-0.553L0.227,-0.553ZM0.257,-0.553L0.257,-0.551L0.264,-0.546L0.266,-0.549L0.266,-0.551L0.257,-0.553ZM0.213,-0.544L0.213,-0.537L0.215,-0.537L0.222,-0.54L0.222,-0.542C0.219,-0.542 0.217,-0.544 0.217,-0.549L0.213,-0.544ZM0.301,-0.549L0.298,-0.54L0.303,-0.54L0.303,-0.544L0.305,-0.544L0.312,-0.542L0.312,-0.544L0.308,-0.549L0.301,-0.549ZM0.25,-0.542L0.248,-0.544L0.25,-0.537L0.257,-0.537L0.259,-0.546L0.257,-0.546L0.25,-0.542ZM0.277,-0.542L0.277,-0.54L0.282,-0.535L0.275,-0.53L0.28,-0.519C0.274,-0.519 0.271,-0.523 0.271,-0.533L0.264,-0.535L0.266,-0.537L0.266,-0.54L0.264,-0.54L0.254,-0.535L0.254,-0.533L0.257,-0.526L0.254,-0.514L0.254,-0.507L0.257,-0.505L0.257,-0.502L0.254,-0.5L0.259,-0.5L0.259,-0.507L0.264,-0.507L0.266,-0.5C0.263,-0.5 0.261,-0.496 0.261,-0.489L0.257,-0.484L0.254,-0.484L0.254,-0.479C0.254,-0.476 0.257,-0.475 0.261,-0.475L0.259,-0.473L0.261,-0.47L0.261,-0.466L0.257,-0.466C0.257,-0.472 0.255,-0.475 0.252,-0.475L0.25,-0.475L0.25,-0.473L0.252,-0.466L0.25,-0.466L0.248,-0.468L0.245,-0.468L0.241,-0.454L0.238,-0.457L0.236,-0.457L0.231,-0.452L0.245,-0.447C0.245,-0.451 0.248,-0.453 0.254,-0.454L0.261,-0.452L0.261,-0.454C0.261,-0.462 0.267,-0.469 0.28,-0.475L0.282,-0.477L0.282,-0.479L0.28,-0.479L0.277,-0.477C0.273,-0.48 0.267,-0.482 0.259,-0.482L0.259,-0.484L0.266,-0.484L0.266,-0.486L0.264,-0.489L0.266,-0.498L0.271,-0.498L0.275,-0.493L0.271,-0.486L0.271,-0.484L0.282,-0.484C0.282,-0.489 0.284,-0.491 0.287,-0.491C0.287,-0.486 0.289,-0.481 0.293,-0.477L0.287,-0.475L0.287,-0.473L0.298,-0.47L0.296,-0.473L0.296,-0.479C0.3,-0.479 0.303,-0.481 0.303,-0.484C0.307,-0.484 0.31,-0.481 0.31,-0.475L0.319,-0.475L0.319,-0.477L0.317,-0.479L0.317,-0.482L0.328,-0.486L0.331,-0.486L0.321,-0.47L0.335,-0.468L0.335,-0.475L0.333,-0.477L0.333,-0.479L0.342,-0.479L0.337,-0.473L0.34,-0.473L0.347,-0.475L0.34,-0.484L0.344,-0.484L0.344,-0.491L0.34,-0.491C0.34,-0.496 0.338,-0.498 0.335,-0.498L0.328,-0.496L0.331,-0.498L0.331,-0.502L0.328,-0.5L0.321,-0.5L0.317,-0.509L0.312,-0.514L0.312,-0.517L0.314,-0.519L0.314,-0.521L0.303,-0.517C0.303,-0.52 0.3,-0.521 0.296,-0.521L0.293,-0.519L0.292,-0.519L0.284,-0.523L0.287,-0.53L0.284,-0.528L0.28,-0.528L0.28,-0.533C0.286,-0.533 0.289,-0.534 0.289,-0.537L0.289,-0.54L0.287,-0.537L0.284,-0.537L0.284,-0.542L0.282,-0.54L0.28,-0.54L0.277,-0.542ZM0.204,-0.533L0.215,-0.53L0.215,-0.535L0.213,-0.533L0.21,-0.533L0.21,-0.537L0.208,-0.537L0.204,-0.533ZM0.319,-0.537L0.321,-0.53L0.328,-0.53L0.328,-0.535L0.326,-0.533L0.324,-0.533L0.319,-0.537ZM0.229,-0.535L0.229,-0.53C0.24,-0.53 0.245,-0.527 0.245,-0.521L0.248,-0.521L0.248,-0.526L0.245,-0.533L0.248,-0.535L0.245,-0.535L0.243,-0.533L0.241,-0.533L0.231,-0.535L0.229,-0.535ZM0.298,-0.535L0.301,-0.526L0.305,-0.526L0.305,-0.528L0.303,-0.535L0.298,-0.535ZM0.261,-0.533L0.268,-0.53L0.268,-0.528L0.259,-0.528L0.261,-0.53L0.261,-0.533ZM0.132,-0.528L0.132,-0.526L0.139,-0.523L0.139,-0.526L0.137,-0.528L0.132,-0.528ZM0.331,-0.528L0.331,-0.526L0.342,-0.523L0.344,-0.523L0.34,-0.528L0.34,-0.526L0.333,-0.528L0.331,-0.528ZM0.342,-0.521L0.342,-0.519L0.344,-0.519L0.356,-0.523L0.356,-0.528L0.352,-0.528L0.344,-0.521L0.342,-0.521ZM0.236,-0.526L0.236,-0.523L0.241,-0.517L0.236,-0.512L0.236,-0.509L0.243,-0.509L0.245,-0.519L0.236,-0.526ZM0.208,-0.521L0.208,-0.519L0.217,-0.519L0.215,-0.517L0.215,-0.512L0.222,-0.505L0.222,-0.507L0.22,-0.509L0.227,-0.509L0.229,-0.507L0.231,-0.507L0.233,-0.514L0.231,-0.523L0.227,-0.523L0.227,-0.517L0.222,-0.517C0.222,-0.521 0.221,-0.523 0.217,-0.523L0.208,-0.521ZM0.204,-0.514L0.204,-0.509L0.21,-0.507L0.21,-0.509L0.206,-0.514L0.204,-0.514ZM0.277,-0.509L0.273,-0.505L0.266,-0.505L0.266,-0.507L0.277,-0.509ZM0.215,-0.502L0.213,-0.496L0.215,-0.493L0.222,-0.493L0.222,-0.496L0.22,-0.502L0.215,-0.502ZM0.241,-0.502L0.241,-0.5L0.25,-0.498L0.252,-0.5L0.252,-0.502L0.241,-0.502ZM0.225,-0.5L0.227,-0.486L0.231,-0.491L0.229,-0.5L0.225,-0.5ZM0.317,-0.5C0.317,-0.497 0.322,-0.495 0.333,-0.493L0.333,-0.489L0.328,-0.489L0.312,-0.486L0.308,-0.493L0.31,-0.496L0.308,-0.498L0.317,-0.5ZM0.194,-0.491C0.194,-0.488 0.197,-0.486 0.201,-0.486L0.206,-0.486L0.206,-0.489L0.194,-0.491ZM0.215,-0.479L0.215,-0.475L0.225,-0.477L0.225,-0.482L0.222,-0.482L0.215,-0.479ZM0.231,-0.475L0.236,-0.47L0.241,-0.475L0.231,-0.475ZM0.197,-0.466L0.199,-0.466L0.204,-0.47L0.201,-0.47L0.197,-0.466ZM0.31,-0.47L0.308,-0.463C0.308,-0.457 0.313,-0.453 0.324,-0.452L0.328,-0.457L0.328,-0.461L0.326,-0.461L0.319,-0.457L0.314,-0.457L0.31,-0.461L0.31,-0.466L0.314,-0.466L0.314,-0.47L0.31,-0.47ZM0.273,-0.463L0.275,-0.463L0.273,-0.461L0.273,-0.454L0.28,-0.44L0.275,-0.44L0.277,-0.438L0.277,-0.433L0.273,-0.433L0.273,-0.431L0.277,-0.431C0.282,-0.431 0.284,-0.433 0.284,-0.438L0.287,-0.44L0.289,-0.44L0.292,-0.438L0.293,-0.44L0.293,-0.447L0.287,-0.447C0.288,-0.452 0.293,-0.454 0.303,-0.454L0.303,-0.457C0.298,-0.457 0.293,-0.459 0.289,-0.463L0.287,-0.461L0.284,-0.461L0.277,-0.468L0.273,-0.463ZM0.132,-0.454L0.134,-0.447L0.137,-0.447C0.137,-0.453 0.135,-0.455 0.132,-0.454ZM0.192,-0.457L0.201,-0.442L0.201,-0.445C0.201,-0.448 0.198,-0.449 0.192,-0.449L0.192,-0.452C0.192,-0.455 0.196,-0.457 0.204,-0.457C0.204,-0.459 0.201,-0.461 0.194,-0.461L0.194,-0.466L0.192,-0.457ZM0.248,-0.463L0.254,-0.463L0.254,-0.461C0.254,-0.457 0.25,-0.455 0.243,-0.454L0.243,-0.461L0.245,-0.458L0.248,-0.458L0.248,-0.463ZM0.277,-0.461L0.287,-0.458L0.287,-0.454L0.28,-0.454L0.275,-0.458L0.277,-0.461ZM0.248,-0.447C0.25,-0.441 0.252,-0.438 0.254,-0.438L0.252,-0.447L0.248,-0.447ZM0.222,-0.426L0.22,-0.429L0.217,-0.429L0.213,-0.424L0.22,-0.424L0.22,-0.417L0.231,-0.424L0.238,-0.422L0.236,-0.424L0.236,-0.426L0.252,-0.431L0.252,-0.436C0.249,-0.436 0.248,-0.438 0.248,-0.442C0.241,-0.442 0.238,-0.439 0.238,-0.433C0.23,-0.433 0.224,-0.431 0.222,-0.426ZM0.257,-0.442L0.257,-0.44C0.257,-0.437 0.26,-0.436 0.266,-0.436L0.266,-0.431L0.271,-0.431L0.271,-0.438C0.264,-0.438 0.261,-0.439 0.261,-0.442L0.257,-0.442ZM0.314,-0.431L0.319,-0.426L0.324,-0.433L0.314,-0.431ZM0.257,-0.429L0.257,-0.426L0.271,-0.422L0.271,-0.426L0.259,-0.429L0.257,-0.429ZM0.266,-0.419L0.266,-0.417L0.271,-0.413L0.271,-0.415L0.266,-0.419ZM0.303,-0.417L0.303,-0.41L0.308,-0.41L0.308,-0.413L0.303,-0.417ZM0.259,-0.408L0.259,-0.406L0.264,-0.406L0.266,-0.413L0.264,-0.413L0.259,-0.408ZM0.22,-0.403L0.22,-0.401L0.231,-0.398L0.236,-0.403L0.236,-0.406L0.231,-0.406L0.231,-0.403L0.229,-0.406L0.227,-0.406L0.22,-0.403ZM0.241,-0.403L0.241,-0.401L0.243,-0.394L0.238,-0.394L0.238,-0.392L0.243,-0.392L0.248,-0.396L0.245,-0.403L0.241,-0.403ZM0.301,-0.398L0.303,-0.396L0.303,-0.394L0.312,-0.396L0.312,-0.398L0.301,-0.398ZM0.37,-0.396L0.37,-0.39L0.375,-0.39L0.372,-0.396L0.37,-0.396ZM0.261,-0.392L0.261,-0.39L0.268,-0.387L0.268,-0.392L0.261,-0.392ZM0.241,-0.387L0.238,-0.385L0.238,-0.38L0.241,-0.38L0.243,-0.387L0.241,-0.387ZM0.227,-0.38L0.227,-0.378L0.231,-0.382L0.231,-0.385L0.227,-0.38ZM0.34,-0.382L0.34,-0.378L0.342,-0.375L0.344,-0.375L0.342,-0.382L0.34,-0.382ZM0.289,-0.371L0.293,-0.366L0.296,-0.366L0.292,-0.371L0.289,-0.371ZM0.331,-0.371L0.331,-0.369L0.335,-0.369L0.335,-0.364L0.328,-0.364L0.331,-0.355L0.333,-0.355L0.333,-0.359L0.349,-0.353L0.349,-0.355C0.349,-0.358 0.345,-0.36 0.335,-0.362L0.335,-0.364C0.34,-0.364 0.342,-0.365 0.342,-0.369L0.333,-0.371L0.331,-0.371ZM0.296,-0.357L0.296,-0.353C0.291,-0.353 0.289,-0.351 0.289,-0.348L0.289,-0.346L0.292,-0.346C0.296,-0.346 0.298,-0.348 0.298,-0.353L0.301,-0.35L0.305,-0.35L0.305,-0.357L0.296,-0.357ZM0.308,-0.348L0.308,-0.346L0.314,-0.343L0.317,-0.343L0.317,-0.346L0.31,-0.348L0.308,-0.348ZM0.252,-0.346L0.252,-0.341L0.264,-0.33L0.264,-0.336C0.259,-0.336 0.257,-0.339 0.257,-0.343L0.254,-0.346L0.252,-0.346ZM0.301,-0.336L0.301,-0.334L0.305,-0.33L0.308,-0.33L0.301,-0.336ZM0.277,-0.219L0.277,-0.216L0.289,-0.216L0.289,-0.221L0.277,-0.219ZM0.225,-0.202L0.222,-0.195L0.231,-0.193L0.231,-0.195L0.229,-0.202L0.225,-0.202ZM0.277,-0.089L0.277,-0.083L0.282,-0.078L0.284,-0.078L0.289,-0.083L0.289,-0.084L0.287,-0.083L0.284,-0.083C0.284,-0.087 0.282,-0.089 0.277,-0.089ZM0.22,-0.083L0.22,-0.075L0.231,-0.073L0.227,-0.083L0.231,-0.083L0.231,-0.087L0.225,-0.087L0.22,-0.083ZM0.261,-0.071L0.261,-0.068C0.265,-0.068 0.269,-0.066 0.273,-0.062L0.275,-0.062L0.275,-0.059L0.273,-0.057L0.273,-0.055L0.289,-0.055C0.288,-0.067 0.286,-0.073 0.282,-0.073L0.277,-0.068L0.275,-0.068L0.277,-0.071L0.277,-0.073L0.275,-0.073L0.261,-0.071ZM0.169,0.056L0.171,0.063L0.173,0.063L0.173,0.058L0.171,0.056L0.169,0.056ZM0.303,0.146L0.303,0.148L0.31,0.151L0.31,0.146L0.303,0.146ZM0.308,0.16L0.308,0.162L0.312,0.162L0.312,0.165L0.314,0.162L0.319,0.162L0.321,0.165L0.324,0.165L0.324,0.16L0.308,0.16Z" style="fill:rgb(154,55,65);fill-rule:nonzero;"/>
            </g>
            <g transform="matrix(13.7264,0,0,13.7264,20.8427,51.7991)">
                <path d="M0.019,-0.83L0.23,-0.83C0.243,-0.83 0.249,-0.824 0.249,-0.812L0.249,-0.784L0.247,-0.781L0.249,-0.779L0.249,-0.528C0.249,-0.525 0.246,-0.523 0.24,-0.523L0.237,-0.521L0.237,-0.518L0.249,-0.516L0.249,-0.481L0.244,-0.481L0.244,-0.479L0.249,-0.479L0.249,-0.448L0.237,-0.446L0.24,-0.439L0.249,-0.446C0.249,-0.438 0.25,-0.435 0.253,-0.435L0.256,-0.435L0.256,-0.432C0.251,-0.432 0.249,-0.431 0.249,-0.428L0.256,-0.428C0.256,-0.432 0.257,-0.435 0.261,-0.435L0.279,-0.435C0.279,-0.441 0.282,-0.444 0.286,-0.444C0.286,-0.447 0.284,-0.448 0.279,-0.448L0.279,-0.453C0.284,-0.453 0.286,-0.455 0.286,-0.458L0.284,-0.456L0.279,-0.456L0.279,-0.467L0.282,-0.467L0.293,-0.465L0.293,-0.469L0.279,-0.469L0.279,-0.537L0.282,-0.535L0.289,-0.535L0.286,-0.542L0.284,-0.539L0.279,-0.539L0.279,-0.614L0.282,-0.616L0.279,-0.618L0.279,-0.776L0.284,-0.776L0.279,-0.784L0.279,-0.812C0.279,-0.824 0.285,-0.83 0.298,-0.83L0.507,-0.83C0.516,-0.83 0.522,-0.826 0.526,-0.818L0.526,-0.602L0.528,-0.6L0.526,-0.597L0.526,-0.539L0.528,-0.537L0.528,-0.535L0.526,-0.532L0.523,-0.532C0.523,-0.535 0.521,-0.537 0.517,-0.537L0.507,-0.53L0.514,-0.532L0.523,-0.528L0.526,-0.53L0.528,-0.528L0.526,-0.525L0.526,-0.448L0.523,-0.446L0.526,-0.444L0.526,-0.411L0.523,-0.402L0.526,-0.393L0.51,-0.397L0.51,-0.395L0.512,-0.393L0.512,-0.39C0.506,-0.389 0.502,-0.387 0.502,-0.383L0.505,-0.381L0.507,-0.381L0.507,-0.386L0.51,-0.386C0.514,-0.381 0.517,-0.379 0.521,-0.379C0.521,-0.37 0.514,-0.365 0.5,-0.362L0.5,-0.355C0.499,-0.357 0.498,-0.359 0.498,-0.362L0.498,-0.365L0.493,-0.369C0.493,-0.362 0.451,-0.354 0.366,-0.346C0.282,-0.339 0.257,-0.36 0.291,-0.409L0.295,-0.397L0.298,-0.397L0.298,-0.388C0.298,-0.385 0.296,-0.383 0.291,-0.383L0.289,-0.381L0.289,-0.379L0.291,-0.381L0.295,-0.381L0.295,-0.379C0.295,-0.376 0.293,-0.374 0.289,-0.374L0.289,-0.372L0.291,-0.369L0.291,-0.367C0.286,-0.367 0.284,-0.366 0.284,-0.362L0.286,-0.362L0.289,-0.365L0.291,-0.362C0.291,-0.367 0.289,-0.366 0.286,-0.36L0.284,-0.351L0.289,-0.346L0.277,-0.349L0.27,-0.344C0.266,-0.353 0.263,-0.358 0.261,-0.358L0.258,-0.355L0.253,-0.36C0.253,-0.357 0.249,-0.354 0.24,-0.351L0.24,-0.349L0.244,-0.349C0.244,-0.344 0.247,-0.341 0.251,-0.341L0.253,-0.334L0.265,-0.337L0.268,-0.337L0.265,-0.334L0.265,-0.332L0.268,-0.33L0.263,-0.33L0.27,-0.323L0.27,-0.32L0.284,-0.32L0.284,-0.316L0.286,-0.316L0.286,-0.323L0.282,-0.328L0.282,-0.33L0.289,-0.325L0.291,-0.328L0.291,-0.33C0.286,-0.33 0.284,-0.331 0.284,-0.334L0.289,-0.334L0.289,-0.337L0.286,-0.337L0.279,-0.334L0.279,-0.337L0.284,-0.341L0.295,-0.339L0.493,-0.351L0.493,-0.332L0.496,-0.332L0.496,-0.337L0.493,-0.344L0.498,-0.344C0.498,-0.336 0.501,-0.332 0.505,-0.332L0.505,-0.334L0.498,-0.346C0.504,-0.347 0.507,-0.349 0.507,-0.353L0.51,-0.353C0.51,-0.348 0.513,-0.346 0.519,-0.346L0.517,-0.344L0.517,-0.339L0.521,-0.339L0.519,-0.341L0.519,-0.344C0.522,-0.344 0.523,-0.346 0.523,-0.351L0.526,-0.351L0.526,-0.176L0.523,-0.174L0.526,-0.171L0.526,-0.169L0.523,-0.167L0.526,-0.165L0.526,-0.058L0.519,-0.048L0.519,-0.046L0.526,-0.046L0.526,-0.043L0.519,-0.043L0.519,-0.042L0.521,-0.039L0.521,-0.037L0.517,-0.032L0.521,-0.032C0.521,-0.037 0.523,-0.039 0.526,-0.039L0.526,-0.027L0.521,-0.027L0.521,-0.021L0.523,-0.022L0.526,-0.022L0.526,0.023L0.521,0.023C0.521,0.028 0.52,0.031 0.517,0.031L0.51,0.012L0.512,0.005L0.505,0L0.496,0.007L0.505,0.019L0.507,0.019L0.505,0.021L0.505,0.023L0.51,0.028L0.51,0.031L0.496,0.028L0.493,0.028L0.493,0.031L0.498,0.031L0.498,0.035C0.492,0.035 0.489,0.041 0.489,0.052L0.489,0.056L0.481,0.056L0.484,0.054L0.484,0.052C0.479,0.052 0.477,0.049 0.477,0.044L0.475,0.042L0.47,0.042L0.463,0.068L0.47,0.072L0.468,0.08L0.475,0.08L0.472,0.077L0.472,0.072C0.476,0.072 0.482,0.069 0.489,0.063L0.493,0.063L0.493,0.068L0.498,0.068C0.501,0.068 0.502,0.066 0.502,0.061L0.505,0.061L0.505,0.068L0.512,0.068L0.512,0.063L0.517,0.063L0.517,0.075L0.521,0.075L0.521,0.065L0.523,0.065L0.526,0.077L0.526,0.089C0.521,0.089 0.519,0.091 0.519,0.096L0.512,0.096C0.514,0.105 0.518,0.11 0.523,0.11L0.523,0.112L0.517,0.112L0.521,0.117L0.523,0.114L0.526,0.114L0.526,0.18C0.524,0.187 0.514,0.191 0.496,0.191L0.451,0.191L0.449,0.189L0.447,0.191L0.342,0.191L0.349,0.18L0.349,0.177L0.34,0.182L0.335,0.177L0.335,0.182L0.34,0.189L0.34,0.191L0.337,0.191C0.332,0.191 0.327,0.189 0.321,0.184L0.321,0.189L0.31,0.187L0.307,0.187L0.31,0.189L0.31,0.191L0.298,0.191L0.298,0.184L0.291,0.189L0.289,0.189C0.282,0.186 0.279,0.181 0.279,0.172L0.279,0.103L0.282,0.093L0.279,0.084L0.279,0.068L0.282,0.068L0.289,0.07L0.284,0.061L0.286,0.054L0.282,0.054L0.282,0.059L0.279,0.059L0.279,0.052L0.282,0.049L0.279,0.047L0.279,0.04L0.284,0.04L0.284,0.038L0.279,0.038L0.279,0.035L0.284,0.026L0.284,0.023L0.282,0.023L0.282,0.028L0.279,0.028L0.279,-0.125L0.284,-0.125L0.284,-0.127L0.279,-0.127C0.283,-0.138 0.287,-0.144 0.293,-0.144L0.293,-0.146L0.286,-0.146L0.279,-0.141L0.279,-0.155L0.284,-0.155L0.284,-0.158L0.279,-0.158L0.282,-0.16L0.279,-0.171L0.279,-0.2L0.284,-0.2L0.284,-0.202L0.279,-0.202L0.279,-0.258L0.282,-0.267L0.279,-0.276L0.282,-0.279L0.282,-0.281L0.277,-0.281L0.277,-0.283L0.274,-0.281L0.249,-0.281L0.249,-0.258C0.243,-0.258 0.238,-0.261 0.233,-0.267L0.233,-0.265L0.235,-0.262L0.23,-0.262L0.23,-0.26L0.235,-0.26L0.235,-0.258L0.23,-0.258L0.23,-0.253L0.235,-0.253L0.235,-0.249L0.233,-0.249L0.226,-0.25L0.223,-0.249L0.223,-0.244L0.228,-0.249L0.23,-0.246L0.233,-0.246L0.235,-0.249L0.237,-0.249L0.24,-0.246L0.244,-0.246L0.244,-0.249C0.238,-0.249 0.235,-0.251 0.235,-0.255L0.235,-0.258L0.24,-0.258L0.247,-0.25L0.249,-0.25L0.249,-0.232L0.247,-0.23L0.249,-0.228L0.249,-0.223L0.247,-0.22L0.249,-0.218L0.249,-0.2L0.247,-0.19L0.249,-0.181L0.249,-0.171L0.247,-0.169L0.249,-0.167L0.249,-0.127L0.242,-0.125L0.235,-0.132L0.233,-0.132L0.235,-0.13L0.235,-0.127L0.233,-0.127C0.223,-0.127 0.219,-0.131 0.219,-0.137L0.216,-0.137L0.216,-0.13L0.233,-0.123L0.237,-0.127L0.237,-0.125L0.235,-0.118L0.237,-0.118L0.244,-0.116L0.244,-0.113L0.24,-0.113L0.233,-0.116L0.233,-0.111L0.228,-0.111L0.228,-0.116L0.223,-0.116L0.223,-0.109L0.228,-0.109L0.23,-0.106L0.233,-0.109L0.233,-0.111C0.236,-0.111 0.237,-0.109 0.237,-0.104L0.247,-0.104L0.244,-0.106L0.247,-0.123L0.249,-0.123L0.249,-0.083L0.244,-0.083L0.244,-0.081L0.249,-0.081L0.249,-0.071L0.244,-0.071L0.244,-0.069L0.249,-0.069L0.249,-0.058L0.244,-0.058L0.244,-0.055L0.249,-0.055L0.249,-0.032L0.244,-0.032L0.249,-0.025L0.249,0.019C0.243,0.019 0.24,0.021 0.24,0.026L0.244,0.026L0.247,0.023L0.249,0.023L0.249,0.042L0.242,0.042L0.242,0.047L0.244,0.047L0.247,0.044L0.249,0.044L0.249,0.054L0.244,0.054L0.249,0.061L0.249,0.089L0.244,0.089L0.244,0.091L0.247,0.093L0.247,0.096L0.244,0.098L0.249,0.098L0.249,0.103L0.244,0.103L0.247,0.105L0.247,0.107L0.242,0.107L0.23,0.101L0.228,0.114L0.23,0.114L0.235,0.11L0.249,0.112L0.249,0.131L0.247,0.133L0.249,0.135L0.249,0.166C0.249,0.183 0.24,0.191 0.223,0.191L0.088,0.191L0.079,0.189L0.07,0.191L0.025,0.191C0.012,0.191 0.004,0.187 0,0.177L0,-0.018L0.007,-0.018L0.007,-0.022L0,-0.022L0.002,-0.03L0,-0.042L0,-0.046L0.002,-0.046L0,-0.062L0,-0.121L0.002,-0.13L0,-0.139L0.009,-0.132L0.012,-0.134L0.014,-0.132L0.014,-0.13L0.012,-0.127L0.016,-0.176L0.016,-0.146L0.005,-0.139L0.002,-0.146L0.005,-0.146L0.007,-0.144L0.009,-0.144L0.009,-0.146L0,-0.148L0,-0.167L0.005,-0.167L0,-0.174L0,-0.192C0.011,-0.193 0.016,-0.196 0.016,-0.2L0,-0.195L0,-0.258L0.009,-0.26L0.009,-0.255L0.007,-0.244L0.021,-0.239L0.021,-0.244L0.023,-0.246L0.021,-0.249L0.021,-0.253L0.03,-0.26L0.016,-0.258L0.014,-0.26L0.012,-0.26L0.014,-0.262L0.014,-0.267L0.005,-0.267L0.002,-0.265L0,-0.265L0,-0.73L0.002,-0.732L0,-0.735L0,-0.812C0,-0.824 0.006,-0.83 0.019,-0.83ZM0.093,-0.809L0.093,-0.807L0.103,-0.797L0.103,-0.802L0.095,-0.809L0.093,-0.809ZM0.125,-0.809L0.125,-0.805L0.133,-0.805L0.128,-0.809L0.125,-0.809ZM0.119,-0.802L0.114,-0.793L0.104,-0.797C0.105,-0.793 0.11,-0.789 0.121,-0.784L0.121,-0.791L0.119,-0.793L0.119,-0.795L0.13,-0.797L0.13,-0.8L0.119,-0.802ZM0.382,-0.758L0.386,-0.746L0.389,-0.746L0.391,-0.76L0.382,-0.758ZM0.074,-0.756L0.074,-0.753L0.079,-0.749L0.079,-0.756L0.074,-0.756ZM0.023,-0.746L0.023,-0.742L0.035,-0.742L0.035,-0.749L0.023,-0.746ZM0.086,-0.744L0.086,-0.742L0.088,-0.739L0.093,-0.739L0.093,-0.742L0.086,-0.744ZM0.023,-0.739L0.023,-0.735L0.042,-0.732L0.044,-0.732L0.044,-0.735L0.023,-0.739ZM0.384,-0.739L0.386,-0.728L0.393,-0.728L0.393,-0.732L0.386,-0.739L0.384,-0.739ZM0.061,-0.735L0.065,-0.73L0.067,-0.73L0.063,-0.735L0.061,-0.735ZM0.368,-0.728L0.372,-0.723L0.375,-0.723L0.37,-0.728L0.368,-0.728ZM0.014,-0.726L0.012,-0.723L0.012,-0.718L0.014,-0.718L0.016,-0.726L0.014,-0.726ZM0.07,-0.723L0.07,-0.716L0.079,-0.714L0.072,-0.723L0.07,-0.723ZM0.216,-0.7L0.216,-0.697L0.223,-0.695L0.226,-0.695L0.226,-0.697L0.219,-0.7L0.216,-0.7ZM0.514,-0.651L0.514,-0.646L0.521,-0.646L0.517,-0.651L0.514,-0.651ZM0.456,-0.644L0.456,-0.648L0.456,-0.644ZM0.203,-0.642L0.203,-0.639L0.205,-0.637L0.209,-0.637L0.209,-0.639L0.203,-0.642ZM0.13,-0.63L0.128,-0.627L0.128,-0.625L0.135,-0.627L0.135,-0.63L0.13,-0.63ZM0.049,-0.618L0.058,-0.609L0.058,-0.614L0.054,-0.618L0.049,-0.618ZM0.484,-0.618L0.481,-0.616L0.481,-0.614L0.491,-0.611L0.493,-0.614L0.493,-0.616L0.484,-0.618ZM0.293,-0.6L0.293,-0.595L0.295,-0.6L0.293,-0.6ZM0.519,-0.6L0.521,-0.593L0.523,-0.593L0.523,-0.597L0.521,-0.6L0.519,-0.6ZM0.014,-0.59L0.019,-0.59L0.025,-0.593L0.028,-0.59L0.03,-0.593L0.03,-0.597C0.02,-0.595 0.014,-0.593 0.014,-0.59ZM0.079,-0.586L0.079,-0.581L0.086,-0.583L0.086,-0.588L0.079,-0.586ZM0.298,-0.588C0.298,-0.58 0.296,-0.577 0.291,-0.577L0.291,-0.574L0.293,-0.574L0.298,-0.588ZM0.458,-0.574L0.458,-0.579L0.456,-0.579L0.458,-0.574ZM0.146,-0.572L0.149,-0.572L0.154,-0.577L0.151,-0.577L0.146,-0.572ZM0.028,-0.572L0.028,-0.567L0.04,-0.569L0.035,-0.574L0.028,-0.572ZM0.191,-0.574C0.197,-0.563 0.202,-0.558 0.205,-0.558L0.207,-0.56L0.207,-0.563C0.202,-0.563 0.198,-0.566 0.195,-0.574L0.191,-0.574ZM0.17,-0.572L0.174,-0.565L0.182,-0.567L0.182,-0.572L0.17,-0.572ZM0.454,-0.567L0.454,-0.563L0.461,-0.563L0.461,-0.567L0.454,-0.567ZM0.465,-0.563L0.465,-0.56L0.472,-0.56L0.472,-0.565L0.465,-0.563ZM0.17,-0.563L0.167,-0.56L0.167,-0.558L0.172,-0.553L0.174,-0.553L0.174,-0.556L0.17,-0.556L0.17,-0.558L0.174,-0.558L0.17,-0.563ZM0.146,-0.546L0.151,-0.542L0.154,-0.542L0.154,-0.546L0.146,-0.546ZM0.125,-0.542L0.125,-0.539L0.128,-0.537L0.128,-0.535L0.125,-0.528L0.133,-0.523L0.142,-0.525L0.142,-0.532C0.142,-0.535 0.137,-0.537 0.128,-0.537L0.128,-0.542L0.125,-0.542ZM0.088,-0.537L0.084,-0.528L0.086,-0.525L0.088,-0.525L0.093,-0.53L0.093,-0.537L0.088,-0.537ZM0.184,-0.525L0.191,-0.521C0.189,-0.513 0.187,-0.509 0.184,-0.509L0.184,-0.514L0.177,-0.511L0.177,-0.504L0.179,-0.504L0.186,-0.507L0.186,-0.504C0.186,-0.501 0.193,-0.494 0.207,-0.483L0.209,-0.486L0.209,-0.493C0.203,-0.493 0.197,-0.498 0.191,-0.509L0.191,-0.514C0.195,-0.514 0.198,-0.515 0.198,-0.518L0.2,-0.518L0.203,-0.516C0.209,-0.517 0.212,-0.521 0.212,-0.528L0.209,-0.525L0.205,-0.525L0.198,-0.53L0.188,-0.53L0.184,-0.525ZM0.214,-0.528L0.214,-0.521L0.221,-0.521L0.214,-0.528ZM0.286,-0.525L0.286,-0.523L0.295,-0.523L0.295,-0.528L0.293,-0.528L0.286,-0.525ZM0.514,-0.518L0.521,-0.518L0.523,-0.525L0.521,-0.525L0.514,-0.518ZM0.498,-0.523L0.498,-0.518L0.505,-0.516L0.505,-0.518L0.498,-0.523ZM0.484,-0.521L0.486,-0.518L0.486,-0.516L0.484,-0.514L0.491,-0.514L0.489,-0.521L0.484,-0.521ZM0.212,-0.504L0.212,-0.5L0.209,-0.5L0.207,-0.502L0.205,-0.502L0.205,-0.5L0.207,-0.498L0.209,-0.498L0.216,-0.5L0.216,-0.504L0.212,-0.504ZM0.177,-0.498L0.179,-0.498L0.182,-0.5L0.182,-0.498L0.177,-0.49L0.177,-0.488L0.184,-0.488L0.184,-0.49L0.182,-0.493L0.184,-0.495L0.184,-0.502L0.182,-0.502L0.177,-0.498ZM0.458,-0.5L0.458,-0.502L0.458,-0.5ZM0.214,-0.498L0.212,-0.495L0.212,-0.493L0.216,-0.488L0.219,-0.488L0.219,-0.493L0.214,-0.498ZM0.298,-0.498L0.298,-0.493L0.298,-0.498ZM0.165,-0.479L0.167,-0.479L0.17,-0.481L0.172,-0.479L0.172,-0.481L0.17,-0.483L0.174,-0.483L0.174,-0.488L0.172,-0.488L0.165,-0.479ZM0.216,-0.483L0.216,-0.474L0.223,-0.477L0.216,-0.483ZM0.298,-0.472L0.295,-0.469L0.295,-0.467L0.298,-0.472ZM0.172,-0.469L0.172,-0.462L0.179,-0.465L0.174,-0.469L0.172,-0.469ZM0.207,-0.469L0.207,-0.462L0.212,-0.467L0.212,-0.469L0.207,-0.469ZM0.293,-0.453L0.298,-0.453C0.295,-0.456 0.293,-0.456 0.293,-0.453ZM0.498,-0.456L0.496,-0.453L0.496,-0.451L0.498,-0.448L0.502,-0.448L0.502,-0.451L0.498,-0.456ZM0.114,-0.451L0.103,-0.451C0.096,-0.449 0.1,-0.449 0.114,-0.451ZM0.216,-0.446C0.216,-0.443 0.22,-0.44 0.228,-0.439L0.226,-0.441L0.226,-0.444L0.23,-0.448L0.23,-0.451L0.216,-0.446ZM0.291,-0.451L0.291,-0.446L0.298,-0.446L0.293,-0.451L0.291,-0.451ZM0.182,-0.439L0.174,-0.444L0.177,-0.441L0.177,-0.437C0.177,-0.433 0.171,-0.431 0.161,-0.43L0.163,-0.423L0.177,-0.423C0.177,-0.42 0.174,-0.418 0.17,-0.418L0.174,-0.414L0.188,-0.416L0.191,-0.409L0.195,-0.409L0.195,-0.414C0.193,-0.42 0.19,-0.423 0.186,-0.423L0.188,-0.425L0.188,-0.428L0.186,-0.43L0.182,-0.43L0.184,-0.428L0.184,-0.425L0.179,-0.425L0.177,-0.435C0.182,-0.439 0.188,-0.441 0.195,-0.441L0.195,-0.446L0.182,-0.441L0.182,-0.439ZM0.163,-0.439L0.163,-0.437L0.165,-0.435L0.17,-0.435L0.17,-0.437L0.163,-0.439ZM0.223,-0.437L0.223,-0.435L0.226,-0.432L0.23,-0.432L0.23,-0.435L0.223,-0.437ZM0.242,-0.425L0.233,-0.409L0.235,-0.409C0.235,-0.412 0.238,-0.414 0.244,-0.414L0.242,-0.416L0.242,-0.418L0.244,-0.418L0.256,-0.416L0.256,-0.423L0.244,-0.425L0.242,-0.425ZM0.502,-0.416L0.507,-0.411L0.51,-0.411L0.505,-0.416L0.502,-0.416ZM0.512,-0.39L0.519,-0.39L0.519,-0.388L0.514,-0.383L0.512,-0.39ZM0.219,-0.386L0.219,-0.383L0.223,-0.379L0.226,-0.381L0.226,-0.386L0.219,-0.386ZM0.27,-0.379L0.272,-0.372L0.274,-0.372L0.274,-0.376C0.279,-0.376 0.282,-0.378 0.282,-0.381L0.279,-0.381L0.27,-0.379ZM0.502,-0.376L0.502,-0.372L0.512,-0.374L0.512,-0.379L0.502,-0.376ZM0.156,-0.374L0.156,-0.369L0.165,-0.365L0.167,-0.367L0.167,-0.369C0.161,-0.369 0.158,-0.371 0.158,-0.374L0.156,-0.374ZM0.179,-0.374L0.179,-0.367L0.188,-0.369L0.188,-0.372L0.179,-0.374ZM0.228,-0.367L0.228,-0.365L0.242,-0.369L0.242,-0.374C0.233,-0.372 0.228,-0.37 0.228,-0.367ZM0.186,-0.367L0.188,-0.365L0.188,-0.36L0.174,-0.358L0.174,-0.362L0.172,-0.362L0.172,-0.355L0.174,-0.353L0.172,-0.351L0.2,-0.351L0.198,-0.353L0.198,-0.355L0.203,-0.355L0.203,-0.36L0.186,-0.367ZM0.256,-0.367L0.256,-0.362L0.268,-0.358L0.268,-0.362L0.258,-0.367L0.256,-0.367ZM0.014,-0.36L0.014,-0.351L0.019,-0.355L0.019,-0.36L0.014,-0.36ZM0.188,-0.36L0.195,-0.358L0.191,-0.353L0.179,-0.353L0.179,-0.358L0.182,-0.358L0.188,-0.355L0.188,-0.36ZM0.221,-0.351L0.223,-0.349L0.228,-0.349L0.228,-0.355L0.226,-0.355L0.221,-0.351ZM0.295,-0.353L0.298,-0.344L0.293,-0.344L0.293,-0.346L0.295,-0.353ZM0.23,-0.349L0.223,-0.339L0.223,-0.337C0.226,-0.338 0.23,-0.341 0.233,-0.349L0.23,-0.349ZM0.256,-0.351L0.258,-0.349L0.258,-0.346L0.256,-0.346L0.258,-0.344L0.258,-0.339L0.251,-0.341L0.253,-0.344L0.253,-0.346L0.247,-0.346L0.247,-0.349L0.256,-0.351ZM0.156,-0.344L0.156,-0.337L0.163,-0.337L0.161,-0.339L0.161,-0.341L0.163,-0.344L0.156,-0.344ZM0.186,-0.33L0.186,-0.328L0.191,-0.328L0.198,-0.337L0.198,-0.339L0.191,-0.33L0.186,-0.33ZM0.226,-0.33L0.226,-0.325L0.23,-0.325L0.228,-0.328L0.228,-0.332L0.242,-0.334L0.237,-0.339C0.23,-0.336 0.226,-0.333 0.226,-0.33ZM0.249,-0.332L0.253,-0.323L0.261,-0.323L0.253,-0.33L0.253,-0.332L0.249,-0.332ZM0.167,-0.328L0.167,-0.325C0.174,-0.325 0.177,-0.324 0.177,-0.32L0.177,-0.318L0.182,-0.323L0.182,-0.325L0.179,-0.328L0.179,-0.33L0.167,-0.328ZM0.219,-0.325C0.219,-0.321 0.217,-0.318 0.214,-0.318L0.212,-0.32L0.209,-0.32L0.209,-0.318L0.214,-0.313L0.219,-0.318C0.219,-0.314 0.222,-0.31 0.228,-0.307L0.23,-0.307L0.23,-0.311C0.227,-0.311 0.226,-0.313 0.226,-0.318C0.223,-0.318 0.221,-0.321 0.221,-0.325L0.219,-0.325ZM0.182,-0.313L0.186,-0.309L0.188,-0.309L0.188,-0.313L0.182,-0.313ZM0.289,-0.297L0.291,-0.295L0.293,-0.295L0.293,-0.297L0.291,-0.299L0.291,-0.302L0.298,-0.313L0.295,-0.313C0.292,-0.313 0.29,-0.308 0.289,-0.297ZM0.151,-0.309L0.151,-0.307L0.154,-0.299L0.156,-0.299L0.156,-0.309L0.151,-0.309ZM0.256,-0.302L0.258,-0.302L0.261,-0.304L0.261,-0.299L0.251,-0.299L0.251,-0.297L0.263,-0.295L0.263,-0.307L0.261,-0.307L0.256,-0.302ZM0.493,-0.295L0.493,-0.299L0.493,-0.295ZM0.295,-0.25L0.293,-0.249L0.291,-0.25L0.284,-0.25C0.284,-0.247 0.288,-0.247 0.295,-0.25ZM0.019,-0.288L0.019,-0.286L0.023,-0.281L0.023,-0.288L0.019,-0.288ZM0.214,-0.281L0.219,-0.276L0.223,-0.281L0.223,-0.283L0.214,-0.281ZM0.17,-0.281L0.172,-0.279L0.177,-0.274L0.177,-0.271L0.179,-0.271L0.179,-0.281L0.17,-0.281ZM0.282,-0.276L0.286,-0.265L0.289,-0.265L0.289,-0.271L0.282,-0.276ZM0.016,-0.27L0.016,-0.267L0.021,-0.262L0.023,-0.265L0.023,-0.27L0.016,-0.27ZM0.186,-0.267L0.184,-0.258L0.188,-0.258L0.188,-0.262C0.197,-0.262 0.204,-0.258 0.209,-0.249L0.207,-0.246L0.207,-0.244L0.212,-0.244L0.212,-0.241L0.221,-0.244C0.209,-0.258 0.197,-0.266 0.186,-0.267ZM0.498,-0.262L0.498,-0.253C0.502,-0.254 0.506,-0.258 0.51,-0.265L0.507,-0.267L0.502,-0.267L0.498,-0.262ZM0.17,-0.262C0.17,-0.259 0.172,-0.258 0.177,-0.258L0.174,-0.255L0.174,-0.253L0.179,-0.253L0.182,-0.262L0.179,-0.26L0.177,-0.26L0.17,-0.262ZM0.284,-0.26L0.284,-0.253L0.289,-0.253L0.286,-0.26L0.284,-0.26ZM0.193,-0.255L0.193,-0.25L0.2,-0.253L0.2,-0.255L0.193,-0.255ZM0.179,-0.25L0.179,-0.246L0.186,-0.239L0.188,-0.239L0.188,-0.241C0.184,-0.241 0.182,-0.243 0.182,-0.246L0.186,-0.25L0.186,-0.253L0.179,-0.25ZM0.505,-0.25L0.5,-0.246L0.505,-0.241C0.505,-0.246 0.509,-0.249 0.517,-0.249L0.517,-0.25L0.505,-0.253L0.505,-0.25ZM0.161,-0.234L0.161,-0.23L0.177,-0.232L0.161,-0.234ZM0.184,-0.23L0.182,-0.23L0.193,-0.234C0.19,-0.234 0.187,-0.233 0.184,-0.23ZM0.203,-0.234L0.203,-0.23L0.205,-0.228L0.207,-0.228L0.205,-0.234L0.203,-0.234ZM0.496,-0.211L0.496,-0.213L0.496,-0.211ZM0.007,-0.211L0.012,-0.207L0.014,-0.207L0.014,-0.211L0.007,-0.211ZM0.289,-0.202L0.293,-0.197L0.291,-0.195L0.291,-0.192L0.293,-0.192L0.298,-0.197C0.295,-0.199 0.293,-0.202 0.293,-0.207L0.289,-0.202ZM0.493,-0.2L0.496,-0.2L0.493,-0.2ZM0.219,-0.188L0.219,-0.181L0.223,-0.181L0.223,-0.183L0.219,-0.188ZM0.517,-0.188L0.514,-0.176L0.519,-0.176L0.521,-0.179L0.523,-0.179C0.521,-0.185 0.519,-0.188 0.517,-0.188ZM0.002,-0.186L0.007,-0.174L0.012,-0.174L0.009,-0.186L0.002,-0.186ZM0.5,-0.186L0.502,-0.179L0.505,-0.179L0.51,-0.183L0.5,-0.186ZM0.237,-0.183L0.237,-0.181L0.244,-0.179L0.244,-0.183L0.237,-0.183ZM0.151,-0.165L0.154,-0.162C0.158,-0.163 0.157,-0.164 0.151,-0.165ZM0.207,-0.179L0.207,-0.174C0.21,-0.174 0.212,-0.171 0.212,-0.165C0.227,-0.168 0.235,-0.171 0.235,-0.174L0.235,-0.179L0.226,-0.179C0.226,-0.175 0.222,-0.172 0.216,-0.171L0.209,-0.179L0.207,-0.179ZM0.284,-0.169L0.295,-0.16L0.298,-0.16L0.289,-0.169L0.284,-0.169ZM0.498,-0.165L0.498,-0.162L0.502,-0.162L0.502,-0.169L0.498,-0.165ZM0.514,-0.169L0.512,-0.167L0.512,-0.165L0.519,-0.165L0.514,-0.169ZM0.223,-0.151L0.23,-0.139C0.237,-0.141 0.24,-0.144 0.24,-0.146L0.223,-0.151ZM0.2,-0.141L0.2,-0.137L0.209,-0.134C0.209,-0.137 0.206,-0.139 0.2,-0.141ZM0.414,-0.134L0.414,-0.132L0.421,-0.134L0.414,-0.134ZM0.154,-0.13L0.151,-0.139L0.154,-0.13ZM0.289,-0.139L0.289,-0.132L0.295,-0.139L0.289,-0.139ZM0.184,-0.134L0.186,-0.127L0.191,-0.127L0.191,-0.134L0.184,-0.134ZM0.461,-0.134L0.461,-0.132L0.463,-0.13L0.465,-0.13L0.463,-0.127L0.463,-0.123L0.468,-0.123L0.468,-0.127L0.461,-0.134ZM0.179,-0.125L0.184,-0.121L0.186,-0.121L0.191,-0.125L0.179,-0.125ZM0.286,-0.121L0.295,-0.121L0.295,-0.125L0.291,-0.125L0.286,-0.121ZM0.158,-0.123L0.156,-0.121L0.156,-0.118C0.161,-0.118 0.163,-0.117 0.163,-0.113L0.17,-0.113L0.17,-0.116C0.17,-0.118 0.166,-0.121 0.158,-0.123ZM0.186,-0.116L0.184,-0.109L0.191,-0.111L0.191,-0.116L0.186,-0.116ZM0.307,-0.113L0.307,-0.111L0.314,-0.111L0.314,-0.116L0.307,-0.113ZM0.407,-0.116L0.402,-0.111L0.4,-0.113L0.398,-0.111L0.398,-0.106L0.4,-0.106C0.405,-0.108 0.408,-0.111 0.41,-0.116L0.407,-0.116ZM0.151,-0.09L0.151,-0.095L0.151,-0.09ZM0.174,-0.106L0.174,-0.104L0.17,-0.097L0.172,-0.097L0.182,-0.106L0.179,-0.106L0.177,-0.104L0.174,-0.106ZM0.193,-0.104L0.193,-0.1L0.2,-0.102L0.2,-0.104L0.193,-0.104ZM0.221,-0.097L0.221,-0.095L0.226,-0.095L0.23,-0.1L0.228,-0.102L0.226,-0.102L0.221,-0.097ZM0.398,-0.1L0.398,-0.092L0.405,-0.095L0.417,-0.092L0.417,-0.097L0.405,-0.1L0.402,-0.097L0.4,-0.097L0.398,-0.1ZM0.423,-0.1L0.423,-0.097L0.426,-0.095L0.423,-0.092L0.431,-0.088L0.435,-0.095L0.423,-0.1ZM0.454,-0.1L0.454,-0.092L0.461,-0.095L0.456,-0.1L0.454,-0.1ZM0.447,-0.083L0.449,-0.081L0.451,-0.081L0.451,-0.088L0.447,-0.083ZM0.379,-0.085L0.384,-0.081L0.386,-0.083L0.386,-0.085L0.379,-0.085ZM0.319,-0.076L0.321,-0.069L0.328,-0.071L0.328,-0.074L0.319,-0.076ZM0.03,-0.069L0.028,-0.058L0.03,-0.058L0.03,-0.069ZM0.449,-0.069L0.451,-0.067L0.451,-0.064C0.447,-0.064 0.443,-0.061 0.44,-0.053L0.438,-0.053L0.438,-0.051L0.449,-0.048L0.447,-0.051L0.447,-0.055L0.456,-0.064L0.468,-0.062L0.47,-0.064L0.47,-0.067L0.468,-0.069L0.465,-0.069L0.456,-0.067L0.449,-0.069ZM0.016,-0.062L0.014,-0.06L0.014,-0.058L0.021,-0.058L0.016,-0.062ZM0.191,-0.062L0.191,-0.058L0.188,-0.058L0.191,-0.051L0.2,-0.055L0.2,-0.06L0.191,-0.062ZM0.396,-0.053L0.398,-0.053L0.402,-0.058L0.4,-0.058L0.396,-0.053ZM0.458,-0.058L0.458,-0.051L0.465,-0.051L0.468,-0.058L0.458,-0.058ZM0.481,-0.055L0.481,-0.051L0.489,-0.051L0.489,-0.053L0.481,-0.055ZM0.384,-0.043L0.389,-0.043L0.396,-0.051C0.388,-0.049 0.384,-0.046 0.384,-0.043ZM0.498,-0.048L0.498,-0.046L0.5,-0.039L0.498,-0.039L0.493,-0.034L0.493,-0.032L0.505,-0.037L0.505,-0.043L0.5,-0.048L0.498,-0.048ZM0.24,-0.043L0.237,-0.034L0.24,-0.034L0.244,-0.039L0.24,-0.043ZM0.433,-0.043L0.433,-0.042L0.435,-0.034L0.44,-0.034L0.44,-0.039L0.435,-0.043L0.433,-0.043ZM0.154,-0.021C0.154,-0.023 0.154,-0.021 0.154,-0.016L0.163,-0.022L0.163,-0.027L0.158,-0.027C0.158,-0.023 0.157,-0.021 0.154,-0.021ZM0.177,-0.037L0.177,-0.032L0.179,-0.032L0.186,-0.034L0.186,-0.037L0.177,-0.037ZM0.212,-0.021C0.208,-0.021 0.206,-0.017 0.205,-0.011L0.207,-0.009L0.209,-0.009L0.212,-0.011L0.212,-0.013L0.214,-0.011L0.223,-0.011L0.223,-0.013L0.219,-0.013L0.219,-0.016L0.221,-0.018L0.221,-0.021C0.22,-0.027 0.218,-0.03 0.214,-0.03L0.216,-0.032L0.216,-0.034L0.214,-0.034L0.212,-0.032L0.212,-0.021ZM0.17,-0.025L0.17,-0.018L0.174,-0.018L0.174,-0.025L0.17,-0.025ZM0.479,-0.022L0.472,-0.013L0.475,-0.016L0.477,-0.016L0.484,-0.013L0.486,-0.016L0.486,-0.018L0.479,-0.022ZM0.188,-0.013L0.191,-0.006L0.195,-0.006L0.193,-0.009L0.193,-0.011L0.198,-0.018L0.188,-0.013ZM0.414,-0.018L0.419,-0.013L0.421,-0.013L0.417,-0.018L0.414,-0.018ZM0.316,-0.011L0.316,-0.006C0.321,-0.006 0.326,-0.001 0.333,0.01L0.335,0.007L0.335,0.005L0.333,0.003L0.337,0.003L0.337,0C0.337,-0.002 0.333,-0.004 0.323,-0.004L0.316,-0.011ZM0.426,-0.009L0.431,-0.004L0.433,-0.006L0.433,-0.009L0.426,-0.009ZM0.226,-0.004L0.223,-0.002L0.223,0L0.24,0.003L0.24,-0.002L0.226,-0.004ZM0.421,-0.002L0.421,0.003L0.419,0L0.417,0L0.414,0.003L0.414,0.005L0.423,0.007L0.423,0.005L0.421,0.003L0.426,-0.002L0.421,-0.002ZM0.352,0.007L0.354,0.01L0.356,0.01L0.361,0.003L0.356,0.003L0.352,0.007ZM0.481,0.005L0.481,0.012L0.486,0.012L0.486,0.005L0.481,0.005ZM0.384,0.007L0.384,0.014L0.389,0.01L0.389,0.007L0.384,0.007ZM0.398,0.007L0.398,0.01L0.402,0.014C0.402,0.011 0.405,0.01 0.41,0.01L0.41,0.007L0.398,0.007ZM0.191,0.012L0.191,0.026C0.202,0.024 0.207,0.022 0.207,0.019L0.205,0.019L0.193,0.021L0.191,0.012ZM0.002,0.031L0.005,0.028L0.007,0.028L0.009,0.031C0.009,0.026 0.011,0.023 0.014,0.023L0.016,0.026L0.019,0.026L0.016,0.019C0.007,0.019 0.002,0.023 0.002,0.031ZM0.209,0.023L0.212,0.023L0.214,0.021L0.216,0.023L0.219,0.023L0.221,0.021L0.223,0.021L0.226,0.023L0.223,0.026L0.223,0.031L0.226,0.031L0.233,0.019L0.23,0.021L0.228,0.021L0.214,0.019L0.209,0.023ZM0.352,0.019L0.352,0.026L0.358,0.023L0.354,0.019L0.352,0.019ZM0.431,0.021L0.431,0.026L0.44,0.028L0.44,0.026L0.435,0.021L0.431,0.021ZM0.456,0.021L0.456,0.028L0.458,0.028L0.463,0.023L0.456,0.021ZM0.47,0.028L0.481,0.028L0.481,0.026L0.479,0.023L0.479,0.021L0.47,0.028ZM0.203,0.026L0.203,0.031L0.2,0.028L0.195,0.028L0.198,0.031L0.198,0.033L0.193,0.04L0.198,0.04L0.207,0.031L0.209,0.031L0.205,0.026L0.203,0.026ZM0.154,0.068L0.161,0.065L0.161,0.063L0.154,0.063L0.154,0.068ZM0.363,0.028L0.363,0.031L0.368,0.031L0.368,0.033L0.365,0.035L0.365,0.038L0.368,0.04L0.372,0.04L0.375,0.031L0.372,0.028L0.363,0.028ZM0.451,0.035L0.451,0.04L0.461,0.042L0.461,0.04L0.456,0.031L0.451,0.035ZM0.521,0.028L0.526,0.028L0.526,0.049L0.523,0.049L0.521,0.028ZM0.214,0.033L0.214,0.035L0.223,0.038L0.223,0.033L0.214,0.033ZM0.435,0.033L0.431,0.038L0.431,0.04L0.438,0.04L0.438,0.033L0.435,0.033ZM0.414,0.035L0.414,0.04L0.421,0.042L0.423,0.042L0.423,0.04L0.414,0.035ZM0.191,0.049L0.203,0.052L0.203,0.044L0.191,0.049ZM0.51,0.035L0.512,0.035L0.519,0.038L0.517,0.04L0.517,0.042L0.519,0.042L0.517,0.044L0.517,0.047L0.521,0.054L0.521,0.059L0.519,0.059L0.507,0.047L0.512,0.04L0.51,0.038L0.51,0.035ZM0.396,0.04L0.389,0.054L0.393,0.059L0.398,0.059L0.396,0.056L0.396,0.052L0.398,0.054L0.4,0.052L0.402,0.052L0.405,0.054L0.407,0.054L0.407,0.049C0.403,0.049 0.4,0.047 0.4,0.042L0.398,0.04L0.396,0.04ZM0.228,0.044L0.226,0.047L0.226,0.049L0.235,0.047L0.235,0.044L0.228,0.044ZM0.319,0.044L0.319,0.047L0.331,0.049L0.335,0.049L0.34,0.044L0.337,0.044L0.335,0.047L0.333,0.047L0.321,0.044L0.319,0.044ZM0.417,0.049L0.414,0.052L0.414,0.056L0.421,0.054L0.417,0.049ZM0.449,0.052L0.449,0.056L0.451,0.063L0.454,0.063L0.454,0.059L0.451,0.052L0.449,0.052ZM0.496,0.052L0.5,0.052L0.505,0.056L0.505,0.059L0.5,0.059L0.496,0.054L0.496,0.052ZM0.028,0.056L0.028,0.061L0.03,0.061L0.028,0.056ZM0.212,0.063L0.221,0.065L0.223,0.063L0.223,0.061L0.221,0.059L0.216,0.059L0.212,0.063ZM0.477,0.056L0.481,0.056L0.481,0.063L0.477,0.063L0.477,0.056ZM0.472,0.059L0.475,0.061L0.475,0.068L0.47,0.068L0.468,0.061L0.47,0.059L0.472,0.059ZM0.182,0.077L0.174,0.077L0.172,0.075L0.17,0.075L0.17,0.077L0.172,0.077L0.17,0.08L0.17,0.091L0.172,0.091L0.174,0.08L0.182,0.082L0.184,0.08L0.186,0.08L0.193,0.082L0.193,0.08L0.188,0.065C0.184,0.065 0.182,0.069 0.182,0.077ZM0.207,0.068L0.207,0.072L0.216,0.077L0.219,0.077L0.212,0.07L0.212,0.068L0.207,0.068ZM0.365,0.068L0.365,0.07C0.368,0.076 0.37,0.08 0.372,0.08L0.372,0.077C0.37,0.071 0.368,0.068 0.365,0.068ZM0.451,0.068L0.449,0.07L0.449,0.072L0.451,0.075L0.458,0.075L0.451,0.068ZM0.435,0.07L0.435,0.075C0.44,0.075 0.442,0.077 0.442,0.082L0.447,0.077L0.44,0.07L0.435,0.07ZM0.493,0.07L0.489,0.077L0.5,0.08L0.502,0.08L0.502,0.07L0.5,0.07L0.498,0.072L0.496,0.072L0.493,0.07ZM0.158,0.077L0.161,0.084L0.167,0.077L0.167,0.075L0.165,0.075L0.158,0.077ZM0.242,0.077L0.242,0.084L0.244,0.084L0.247,0.077L0.242,0.077ZM0.507,0.077L0.507,0.084L0.512,0.084L0.512,0.077L0.507,0.077ZM0.305,0.082L0.298,0.091L0.298,0.093L0.302,0.098L0.31,0.091L0.305,0.084L0.307,0.082L0.305,0.082ZM0.337,0.084L0.335,0.098L0.342,0.105L0.337,0.105L0.337,0.112L0.342,0.117L0.344,0.117C0.344,0.111 0.348,0.107 0.356,0.107C0.357,0.101 0.359,0.098 0.363,0.098L0.37,0.103L0.375,0.098L0.372,0.098L0.377,0.086L0.37,0.089L0.363,0.086C0.363,0.091 0.358,0.093 0.349,0.093L0.352,0.096L0.352,0.103L0.347,0.103L0.349,0.101L0.349,0.098L0.34,0.096L0.34,0.089L0.342,0.086L0.342,0.084L0.337,0.084ZM0.198,0.086L0.198,0.093L0.203,0.093L0.219,0.091L0.219,0.086L0.207,0.089L0.198,0.086ZM0.481,0.086L0.472,0.101L0.472,0.103L0.468,0.103L0.47,0.091C0.465,0.091 0.461,0.098 0.458,0.112L0.468,0.112L0.465,0.11L0.465,0.105L0.468,0.105L0.47,0.107L0.472,0.107L0.477,0.103L0.477,0.11L0.472,0.11L0.472,0.117L0.486,0.119L0.486,0.11L0.481,0.11L0.481,0.107L0.484,0.105L0.484,0.103L0.481,0.093L0.481,0.091L0.484,0.093L0.486,0.093L0.489,0.091L0.489,0.089L0.486,0.086L0.481,0.086ZM0.323,0.091L0.321,0.093L0.321,0.096L0.326,0.101L0.326,0.098L0.323,0.096L0.323,0.093L0.326,0.091L0.323,0.091ZM0.486,0.096L0.491,0.112L0.498,0.112L0.498,0.11L0.491,0.096L0.486,0.096ZM0.447,0.098L0.447,0.105L0.451,0.101L0.449,0.098L0.447,0.098ZM0.519,0.096L0.526,0.096L0.526,0.101L0.519,0.101L0.519,0.096ZM0.028,0.105L0.028,0.114L0.03,0.114L0.028,0.105ZM0.151,0.105L0.154,0.107L0.154,0.11L0.151,0.112L0.151,0.114L0.158,0.119L0.167,0.112L0.156,0.11L0.156,0.107L0.161,0.107L0.161,0.105L0.151,0.105ZM0.421,0.11L0.421,0.117L0.433,0.119L0.435,0.117L0.438,0.117L0.435,0.114L0.435,0.107L0.442,0.112L0.442,0.105L0.421,0.11ZM0.505,0.107L0.505,0.114L0.512,0.117L0.512,0.114L0.51,0.107L0.512,0.105L0.505,0.107ZM0.174,0.107L0.17,0.112L0.17,0.114L0.188,0.112L0.188,0.11L0.174,0.107ZM0.191,0.107L0.191,0.11L0.195,0.117L0.203,0.114L0.203,0.107L0.2,0.11L0.195,0.11L0.193,0.107L0.191,0.107ZM0.214,0.107L0.214,0.114L0.219,0.114L0.223,0.11L0.214,0.107ZM0.447,0.107L0.444,0.11L0.444,0.114L0.449,0.119L0.454,0.119C0.452,0.111 0.449,0.107 0.447,0.107ZM0.354,0.117L0.361,0.117L0.361,0.112L0.358,0.112L0.354,0.117ZM0.491,0.114L0.496,0.119L0.5,0.119L0.5,0.114L0.491,0.114ZM0.137,0.124L0.144,0.126L0.137,0.124ZM0.17,0.122C0.17,0.125 0.165,0.131 0.154,0.14L0.154,0.145L0.161,0.145L0.161,0.142L0.158,0.14L0.158,0.138L0.161,0.138L0.167,0.142L0.174,0.135C0.168,0.135 0.165,0.134 0.165,0.131C0.17,0.131 0.172,0.128 0.172,0.124L0.177,0.124L0.177,0.122L0.17,0.122ZM0.233,0.131L0.233,0.135L0.24,0.135L0.235,0.131L0.233,0.131ZM0.298,0.138L0.298,0.14L0.31,0.14L0.31,0.138L0.298,0.138ZM0.365,0.138L0.363,0.149L0.368,0.145L0.368,0.138L0.365,0.138ZM0.481,0.142L0.481,0.147L0.484,0.149L0.479,0.149L0.479,0.154L0.481,0.154L0.489,0.151L0.489,0.154L0.498,0.151L0.498,0.142L0.496,0.142L0.496,0.149L0.489,0.149C0.486,0.149 0.484,0.147 0.484,0.142L0.481,0.142ZM0.04,0.149L0.04,0.151L0.046,0.154L0.046,0.151L0.044,0.149L0.04,0.149ZM0.449,0.154L0.447,0.161L0.451,0.161L0.451,0.154L0.449,0.154ZM0.31,0.175L0.31,0.182L0.312,0.182L0.314,0.175L0.31,0.175ZM0.098,0.187L0.098,0.189L0.103,0.189L0.104,0.187L0.104,0.184L0.098,0.187Z" style="fill:rgb(154,55,65);fill-rule:nonzero;"/>
            </g>
            <g transform="matrix(13.7264,0,0,13.7264,28.6309,51.7991)">
                <path d="M0.021,-0.832L0.436,-0.832C0.448,-0.832 0.454,-0.824 0.454,-0.807L0.454,-0.698C0.454,-0.681 0.446,-0.672 0.429,-0.672L0.306,-0.672L0.304,-0.674L0.301,-0.672L0.25,-0.672L0.248,-0.645L0.25,-0.645L0.248,-0.637L0.25,-0.605L0.248,-0.598L0.25,-0.591L0.248,-0.589L0.248,-0.586L0.25,-0.577L0.248,-0.575L0.248,-0.573L0.25,-0.565L0.243,-0.563L0.243,-0.561C0.248,-0.561 0.25,-0.559 0.25,-0.556L0.248,-0.549L0.25,-0.538L0.25,-0.438L0.333,-0.438L0.352,-0.434L0.352,-0.438L0.354,-0.436L0.357,-0.438L0.361,-0.438L0.368,-0.436L0.38,-0.438L0.417,-0.438C0.425,-0.438 0.43,-0.434 0.433,-0.427L0.433,-0.304C0.433,-0.291 0.427,-0.285 0.415,-0.285L0.25,-0.285L0.25,0.025L0.433,0.025C0.449,0.025 0.457,0.031 0.457,0.043L0.457,0.164C0.457,0.178 0.45,0.185 0.436,0.185L0.025,0.185C0.008,0.185 0,0.176 0,0.159L0,-0.174L0.002,-0.176L0,-0.179L0,-0.301L0.002,-0.311L0,-0.32L0,-0.39L0.002,-0.392L0,-0.394L0,-0.401L0.002,-0.403L0,-0.406L0,-0.633L0.002,-0.677L0,-0.702L0.002,-0.709L0,-0.711L0.002,-0.723L0,-0.735L0.002,-0.737L0,-0.749L0,-0.755L0.002,-0.758L0,-0.76L0,-0.781L0.002,-0.783L0,-0.791L0.002,-0.809L0,-0.811L0,-0.813C0,-0.824 0.007,-0.83 0.021,-0.832ZM0.389,-0.779L0.389,-0.776L0.394,-0.772L0.396,-0.772L0.389,-0.779ZM0.014,-0.751L0.012,-0.744L0.014,-0.744L0.016,-0.746L0.016,-0.751L0.014,-0.751ZM0.06,-0.735L0.06,-0.732L0.067,-0.73L0.067,-0.735L0.06,-0.735ZM0.007,-0.732L0.004,-0.73L0.004,-0.726L0.012,-0.728L0.007,-0.732ZM0.072,-0.728L0.072,-0.726C0.072,-0.722 0.075,-0.721 0.081,-0.721L0.081,-0.716L0.086,-0.716L0.086,-0.721L0.081,-0.726L0.079,-0.723L0.077,-0.723L0.072,-0.728ZM0.206,-0.658L0.206,-0.656L0.211,-0.661L0.211,-0.663L0.206,-0.658ZM0.132,-0.573L0.132,-0.57L0.146,-0.57L0.144,-0.577L0.137,-0.577L0.132,-0.573ZM0.19,-0.57L0.19,-0.568L0.199,-0.565L0.199,-0.568L0.197,-0.57L0.19,-0.57ZM0.202,-0.568L0.202,-0.565L0.206,-0.561L0.211,-0.561L0.211,-0.568L0.202,-0.568ZM0.097,-0.492L0.097,-0.489L0.106,-0.489L0.106,-0.492L0.097,-0.492ZM0.354,-0.429L0.354,-0.424L0.366,-0.422L0.366,-0.424L0.361,-0.431L0.354,-0.429ZM0.317,-0.429L0.313,-0.424L0.313,-0.422L0.317,-0.422L0.32,-0.424L0.32,-0.429L0.317,-0.429ZM0.324,-0.424L0.324,-0.422L0.329,-0.427L0.329,-0.429L0.324,-0.424ZM0.338,-0.382L0.311,-0.41L0.315,-0.41L0.317,-0.417L0.338,-0.382ZM0.382,-0.38L0.382,-0.375L0.385,-0.375L0.389,-0.38L0.389,-0.382L0.382,-0.38ZM0.26,-0.36L0.276,-0.371L0.28,-0.366L0.283,-0.366L0.283,-0.369L0.28,-0.375L0.283,-0.375L0.285,-0.374L0.287,-0.374L0.287,-0.378L0.28,-0.378L0.26,-0.36ZM0.327,-0.311L0.327,-0.306L0.329,-0.309L0.336,-0.309L0.336,-0.304L0.338,-0.304L0.338,-0.311L0.327,-0.311ZM0.327,-0.299L0.333,-0.299L0.333,-0.304L0.332,-0.304L0.327,-0.299ZM0.046,-0.225C0.046,-0.221 0.04,-0.216 0.03,-0.211L0.03,-0.209L0.032,-0.211L0.037,-0.211L0.037,-0.207C0.033,-0.207 0.03,-0.205 0.03,-0.202L0.032,-0.2L0.035,-0.2L0.04,-0.207L0.042,-0.204L0.051,-0.204L0.051,-0.207L0.049,-0.209L0.049,-0.211C0.056,-0.213 0.06,-0.215 0.06,-0.218L0.06,-0.22L0.056,-0.22L0.053,-0.218L0.051,-0.218C0.051,-0.223 0.049,-0.225 0.046,-0.225ZM0.067,-0.209L0.067,-0.204L0.074,-0.2L0.074,-0.204L0.069,-0.209L0.067,-0.209ZM0.072,-0.174L0.077,-0.174L0.083,-0.176L0.083,-0.179L0.077,-0.179L0.072,-0.174ZM0.083,-0.174L0.083,-0.172L0.137,-0.086L0.09,-0.169L0.09,-0.172L0.083,-0.174Z" style="fill:rgb(154,55,65);fill-rule:nonzero;"/>
            </g>
        </g>
    </g>
    <g transform="matrix(1.29042,0,-0.348691,1.29042,-52.7496,15.997)">
        <g>
            <g transform="matrix(30,0,0,30,93.3804,25.8597)">
                <path d="M0,0L0,-0.25L0.625,-0.25L0.625,-0.375L0.125,-0.375L0,-0.5L0,-0.875L0.125,-1L0.875,-1L0.875,-0.75L0.25,-0.75L0.25,-0.625L0.875,-0.625L0.875,-0.25L0.625,0L0,0Z" style="fill:rgb(13,26,80);fill-rule:nonzero;"/>
            </g>
            <g transform="matrix(30,0,0,30,122.97,25.8597)">
                <path d="M0.125,0L0,-0.125L-0.006,-1.53L0.244,-1.53L0.25,-0.25L0.625,-0.25L0.619,-1.53L0.869,-1.53L0.875,-0.466L0.875,-0.25L0.75,0L0.125,0Z" style="fill:rgb(13,26,80);fill-rule:nonzero;"/>
            </g>
            <g transform="matrix(30,0,0,30,152.56,25.8597)">
                <path d="M0.625,-0.625L0.625,-0.75L0.25,-0.75L0.25,-0.625L0.625,-0.625ZM0,0L0,-1L0.75,-1L0.875,-0.875L0.875,-0.5L0.75,-0.375L0.25,-0.375L0.25,0L0,0Z" style="fill:rgb(13,26,80);fill-rule:nonzero;"/>
            </g>
            <g transform="matrix(30,0,0,30,182.15,25.8597)">
                <path d="M0,0L0,-1L0.75,-1L0.75,-0.75L0.25,-0.75L0.25,-0.625L0.75,-0.625L0.75,-0.375L0.25,-0.375L0.25,-0.25L0.75,-0.25L0.75,0L0,0Z" style="fill:rgb(13,26,80);fill-rule:nonzero;"/>
            </g>
            <g transform="matrix(30,0,0,30,207.99,25.8597)">
                <path d="M0,0L0,-1L0.75,-1L0.875,-0.875L0.875,-0.5L0.75,-0.375L0.688,-0.375L0.875,0L0.625,0L0.375,-0.5L0.375,-0.625L0.625,-0.625L0.625,-0.75L0.25,-0.75L0.25,0L0,0Z" style="fill:rgb(13,26,80);fill-rule:nonzero;"/>
            </g>
            <g transform="matrix(30,0,0,30,93.3804,60.3597)">
                <path d="M0.5,0L0,-1L0.313,-1L0.594,-0.438L0.875,-1L1.188,-1L0.688,0L0.5,0Z" style="fill:rgb(13,26,80);fill-rule:nonzero;"/>
            </g>
            <g transform="matrix(30,0,0,44.5177,134.22,74.8774)">
                <rect x="0" y="-1" width="0.25" height="1" style="fill:rgb(13,26,80);fill-rule:nonzero;"/>
            </g>
            <g transform="matrix(30,0,0,30,145.06,60.3597)">
                <path d="M0,0L0,-1L0.25,-1L0.25,-0.25L0.875,-0.25L0.75,0L0,0Z" style="fill:rgb(13,26,80);fill-rule:nonzero;"/>
            </g>
            <g transform="matrix(30,0,0,30,174.65,60.3597)">
                <path d="M-0.373,0.539L0.438,-1L0.688,-1L1.188,0L0.875,0L0.813,-0.125L0.375,-0.125L0.5,-0.375L0.688,-0.375L0.563,-0.625L-0.061,0.539L-0.373,0.539Z" style="fill:rgb(13,26,80);fill-rule:nonzero;"/>
            </g>
            <g transform="matrix(30,0,0,30,211.74,60.3597)">
                <path d="M-0.023,0.438L0,-1L0.313,-1L0.625,-0.375L0.625,-1L0.875,-1L0.875,0L0.563,0L0.25,-0.625L0.227,0.438L-0.023,0.438Z" style="fill:rgb(13,26,80);fill-rule:nonzero;"/>
            </g>
        </g>
    </g>
</svg>
